<svg width="34" height="41" fill="none" xmlns="http://www.w3.org/2000/svg"><path d="M31.942 4.687L16.234.478a1.85 1.85 0 00-2.263 1.307L5.985 31.59a1.85 1.85 0 001.306 2.263L23 38.06a1.85 1.85 0 002.262-1.307L33.248 6.95a1.85 1.85 0 00-1.306-2.264zM16.118.911L31.826 5.12a1.402 1.402 0 01.99 1.715l-.623 2.324L13.78 4.225l.623-2.324a1.402 1.402 0 011.715-.99h0zm15.96 8.68l-6.51 24.293-18.413-4.933 6.51-24.294 18.413 4.934zm-8.963 28.037L7.407 33.42a1.402 1.402 0 01-.99-1.714l.622-2.322 18.413 4.934-.622 2.321a1.402 1.402 0 01-1.715.99z" fill="#57C460" stroke="#57C460" stroke-width=".6"/><path d="M15.993 32.794a.924.924 0 10-.48 1.785.924.924 0 00.48-1.785zm-.42 1.57a.7.7 0 11.361-1.354.7.7 0 01-.362 1.353zm6.368-29.691l2.96.793a.224.224 0 10.117-.432l-2.961-.793a.224.224 0 00-.116.432z" fill="#57C460" stroke="#57C460" stroke-width=".6"/><path d="M19.11 5.45H2.848A1.85 1.85 0 001 7.296v30.855A1.85 1.85 0 002.848 40H19.11a1.85 1.85 0 001.848-1.848V7.297A1.85 1.85 0 0019.11 5.45z" fill="#fff"/><path d="M19.11 5.45H2.848A1.85 1.85 0 001 7.296v30.855A1.85 1.85 0 002.848 40H19.11a1.85 1.85 0 001.848-1.848V7.297A1.85 1.85 0 0019.11 5.45zm-16.262.447H19.11a1.402 1.402 0 011.4 1.4v2.406H1.448V7.297a1.402 1.402 0 011.4-1.4h0zM20.51 10.15V35.3H1.448V10.15H20.51zm-1.4 29.401H2.848a1.401 1.401 0 01-1.4-1.4V35.75H20.51v2.403a1.402 1.402 0 01-1.4 1.4z" fill="#57C460" stroke="#57C460" stroke-width=".6"/><path d="M10.979 36.727a.924.924 0 10-.001 1.847.924.924 0 000-1.847zm0 1.624a.7.7 0 11-.001-1.4.7.7 0 010 1.4zM9.446 8.024h3.065a.224.224 0 100-.448H9.446a.224.224 0 100 .448z" fill="#57C460" stroke="#57C460" stroke-width=".6"/></svg>