<svg width="25" height="42" fill="none" xmlns="http://www.w3.org/2000/svg"><path d="M21.966 1H3.14A2.142 2.142 0 001 3.14v35.72A2.141 2.141 0 003.14 41h18.826a2.141 2.141 0 002.14-2.14V3.14A2.142 2.142 0 0021.965 1zM3.14 1.518h18.827a1.623 1.623 0 011.621 1.622v2.785H1.518V3.14A1.623 1.623 0 013.14 1.518h0zm20.448 4.925V35.56H1.518V6.443h22.07zm-1.62 34.039H3.138a1.623 1.623 0 01-1.62-1.621v-2.783h22.068v2.783a1.623 1.623 0 01-1.62 1.62z" fill="#57C460" stroke="#57C460" stroke-width=".6"/><path d="M12.55 14.001c-3.86 0-7 3.14-7 7s3.14 7 7 7 7-3.14 7-7-3.14-7-7-7zm0 .975c1.43 0 2.747.501 3.781 1.338l-8.468 8.468a5.997 5.997 0 01-1.338-3.78 6.032 6.032 0 016.025-6.026zm0 12.05a6.001 6.001 0 01-4.015-1.537l8.503-8.504a6.001 6.001 0 011.537 4.016 6.032 6.032 0 01-6.025 6.025z" fill="#57C460"/><path d="M12.553 37.21a1.07 1.07 0 10-.001 2.14 1.07 1.07 0 000-2.14zm0 1.88a.81.81 0 11-.001-1.621.81.81 0 010 1.622zM10.778 3.98h3.549a.259.259 0 100-.518h-3.549a.26.26 0 000 .519z" fill="#57C460" stroke="#57C460" stroke-width=".6"/></svg>