<svg width="40" height="40" fill="none" xmlns="http://www.w3.org/2000/svg"><path d="M14.688 8.591c0 4.738 3.856 8.592 8.594 8.592 4.739 0 8.594-3.854 8.594-8.592C31.876 3.854 28.021 0 23.282 0c-4.738 0-8.594 3.854-8.594 8.591zm15.626 0c0 3.876-3.154 7.03-7.032 7.03-3.877 0-7.031-3.154-7.031-7.03 0-3.875 3.154-7.029 7.031-7.029 3.878 0 7.032 3.154 7.032 7.03zM8.999 39.769a.781.781 0 001.103.006l3.787-3.73a2.36 2.36 0 00.557-2.424l.814-.785a2.33 2.33 0 011.627-.657h10.386a6.996 6.996 0 004.905-1.992c.054-.053-.412.497 7.086-8.462a3.128 3.128 0 00-.372-4.404 3.134 3.134 0 00-4.384.349l-4.61 4.737a3.14 3.14 0 00-2.43-1.163h-8.711a10.082 10.082 0 00-3.913-.78c-3.762 0-7.047 1.736-8.81 4.993a2.334 2.334 0 00-2.09.647L.229 29.831a.781.781 0 00-.001 1.102L9 39.769zm5.845-17.744a8.53 8.53 0 013.44.716.78.78 0 00.313.065h8.872c.847 0 1.563.691 1.563 1.562 0 .862-.701 1.563-1.563 1.563h-6.375a.781.781 0 100 1.561h6.375a3.128 3.128 0 003.097-3.532c4.46-4.583 5.089-5.227 5.116-5.259a1.568 1.568 0 012.203-.186c.658.556.741 1.544.183 2.205l-7.008 8.374a5.44 5.44 0 01-3.787 1.523H16.887a3.884 3.884 0 00-2.712 1.095l-.664.64-6.12-6.118c1.43-2.683 4.114-4.209 7.453-4.209zM5.05 27.208a.78.78 0 01.968-.11c.135.083-.253-.27 6.767 6.737.312.313.295.81.004 1.101l-3.23 3.18-7.676-7.732 3.167-3.176z" fill="#57C460"/><path d="M22.345 3.905v.916a2.347 2.347 0 00-1.563 2.208 2.346 2.346 0 002.344 2.344.782.782 0 010 1.562c-.334 0-.694-.21-1.015-.591a.782.782 0 00-1.196 1.005c.418.496.91.842 1.43 1.017v.912a.78.78 0 001.562 0v-.916a2.347 2.347 0 001.563-2.208 2.346 2.346 0 00-2.344-2.344.782.782 0 010-1.562c.277 0 .569.142.845.409a.782.782 0 001.087-1.123 3.018 3.018 0 00-1.151-.719v-.91a.781.781 0 10-1.562 0z" fill="#57C460"/></svg>