<svg width="30" height="41" fill="none" xmlns="http://www.w3.org/2000/svg"><path d="M16.576 8.78H3.268A2.28 2.28 0 001 11.068v26.646A2.28 2.28 0 003.268 40h13.308a2.28 2.28 0 002.269-2.287V11.067a2.28 2.28 0 00-2.269-2.286zm1.361 24.818H5.084a.455.455 0 00-.454.457c0 .252.204.457.454.457h12.854v3.201c0 .757-.61 1.372-1.36 1.372H3.267c-.75 0-1.36-.615-1.36-1.372v-3.2h1.36a.456.456 0 00.454-.458.455.455 0 00-.454-.457h-1.36V13.354h16.03v20.244zm0-21.159H1.907v-1.372c0-.756.61-1.372 1.361-1.372h13.308c.75 0 1.361.616 1.361 1.372v1.372z" fill="#57C460" stroke="#57C460" stroke-width=".3"/><path d="M11.737 10.61H9.922a.456.456 0 00-.453.457c0 .253.203.457.453.457h1.815c.25 0 .454-.204.454-.457a.456.456 0 00-.454-.457zM9.922 35.427c-.75 0-1.36.615-1.36 1.372 0 .756.61 1.372 1.36 1.372.75 0 1.361-.616 1.361-1.372 0-.757-.61-1.372-1.36-1.372zm0 1.829a.456.456 0 01-.453-.457c0-.252.203-.458.453-.458s.454.206.454.458a.456.456 0 01-.454.457zM8.107 11.524a.455.455 0 00.454-.457.456.456 0 00-.454-.457.456.456 0 00-.453.457c0 .253.203.457.453.457z" fill="#57C460" stroke="#57C460" stroke-width=".3"/><path d="M29.52 11.949c-1.242-.104-1.878-.73-2.001-1.971a.25.25 0 00-.25-.222.25.25 0 00-.251.222c-.126 1.239-.76 1.866-1.995 1.973a.248.248 0 00-.23.245c0 .127.1.233.23.244 1.233.103 1.867.73 1.996 1.973a.25.25 0 00.25.221h.001a.25.25 0 00.25-.222c.123-1.242.759-1.869 2-1.973a.249.249 0 00.23-.245c0-.128-.1-.234-.23-.245zm-2.252 1.404a2.178 2.178 0 00-1.163-1.16 2.172 2.172 0 001.163-1.156c.236.538.625.925 1.165 1.157-.54.233-.93.62-1.165 1.16zm-.008-8.529c-2.73-.228-4.13-1.606-4.401-4.336A.549.549 0 0022.307 0a.548.548 0 00-.55.487c-.278 2.727-1.673 4.106-4.39 4.34a.547.547 0 00-.505.54c0 .28.22.514.507.537 2.71.227 4.105 1.607 4.39 4.342a.55.55 0 00.551.486h.002a.549.549 0 00.55-.489c.27-2.732 1.668-4.111 4.399-4.341a.545.545 0 00.506-.539c0-.28-.22-.515-.506-.539zm-4.954 3.09c-.523-1.187-1.377-2.04-2.558-2.551 1.183-.511 2.037-1.362 2.558-2.545a4.767 4.767 0 002.563 2.545 4.772 4.772 0 00-2.563 2.55z" fill="#57C460"/></svg>