<svg width="29" height="42" fill="none" xmlns="http://www.w3.org/2000/svg"><path d="M19.328 1c-5.027 0-9.127 4.035-9.127 9.026 0 .242.01.49.029.727H2.7c-.935 0-1.7.765-1.7 1.7V39.3c0 .934.765 1.7 1.7 1.7h15.044c.936 0 1.715-.766 1.715-1.7V27.351a.465.465 0 00.32-.335c.826-2.752 2.941-5.36 4.898-8.081 1.957-2.722 3.765-5.588 3.765-8.91 0-4.99-4.086-9.026-9.114-9.026zm0 .93c4.53 0 8.184 3.613 8.184 8.096 0 2.982-1.657 5.668-3.59 8.358-1.683 2.34-3.523 4.676-4.579 7.224a.463.463 0 00-.058-.059c-1.061-2.524-2.89-4.843-4.564-7.165-1.938-2.69-3.59-5.377-3.59-8.358 0-4.482 3.668-8.096 8.197-8.096zm-.014 3.678c-2.453.007-4.462 1.994-4.462 4.433s2.01 4.425 4.462 4.433h.014c2.453-.008 4.463-1.994 4.463-4.433 0-2.44-2.01-4.426-4.463-4.433h-.014zm0 .93h.014c1.962 0 3.533 1.566 3.532 3.503a3.51 3.51 0 01-3.532 3.503.35.35 0 00-.014 0c-1.961 0-3.532-1.567-3.532-3.503 0-1.937 1.571-3.503 3.532-3.503zM2.701 11.683h7.645c.138.776.371 1.52.668 2.253H1.93v-1.482c0-.436.333-.77.77-.77zm-.77 3.183h9.505c.69 1.412 1.6 2.76 2.544 4.07 1.726 2.396 3.57 4.712 4.55 7.108v8.343H1.93v-19.52zm0 20.45h16.598V39.3a.77.77 0 01-.785.77H2.701a.757.757 0 01-.77-.77v-3.982zm8.299.931c-.816 0-1.484.667-1.483 1.483a1.5 1.5 0 001.483 1.497 1.5 1.5 0 001.482-1.497c0-.816-.666-1.483-1.482-1.483zm0 .93c.313 0 .552.24.552.553a.555.555 0 01-.552.567.567.567 0 01-.567-.567c0-.312.253-.553.567-.553z" fill="#57C460" stroke="#57C460" stroke-width=".3"/></svg>