<svg width="34" height="41" fill="none" xmlns="http://www.w3.org/2000/svg"><path d="M0 37.201c0 2.103 1.729 3.797 3.831 3.797h27.546a.48.48 0 00.493-.471v-6.033h.505c.429 0 .795-.314.795-.742V26.12a.826.826 0 00-.795-.814h-.587v-6.502a.492.492 0 00-.49-.49h-1.949V1.469c0-.27-.247-.471-.516-.471H5.928a.468.468 0 00-.48.471V11.81H3.82c-2.059 0-3.778 1.63-3.8 3.688a2.98 2.98 0 00.015.378H0V37.2zm32.195-10.919v7.236h-4.123a2.609 2.609 0 01-1.145-.247l-2.06-.997a2.606 2.606 0 010-4.687l2.06-1.023a2.648 2.648 0 011.145-.282h4.123zM10.732 1.974h17.642v16.34h-1.415a7.378 7.378 0 00-.049-.483V5.994a.488.488 0 00-.488-.488c-.995 0-1.684-.674-1.714-1.677a.488.488 0 00-.488-.473h-9.415a.488.488 0 00-.487.473c-.027.909-.962 1.677-2.042 1.677a.488.488 0 00-.487.488v12.32h-1.057V1.975zm8.817 9.403c-3.021 0-5.627 1.83-6.785 4.422V6.446c1.222-.182 2.213-1.033 2.467-2.115h8.553a2.584 2.584 0 002.15 2.111v8.588a7.44 7.44 0 00-6.385-3.653zm6.386 6.519v.419h-.882c-.25-2.788-2.623-5.04-5.504-5.04-2.882 0-5.253 2.252-5.504 5.04h-.926a6.449 6.449 0 0112.816-.42zM8.618 1.974h1.138v16.34H8.618V1.975zm-2.195 0h1.22v16.34h-1.22V1.975zM3.778 12.787h1.67v5.528h-1.64c-1.52 0-2.794-1.206-2.815-2.726a2.77 2.77 0 012.784-2.803zM.976 18.064c.731.754 1.7 1.226 2.802 1.226h11.669a.488.488 0 100-.976h-.423a4.552 4.552 0 019.05 0H18.7a.487.487 0 100 .976h12.114v6.016h-2.74a3.627 3.627 0 00-1.574.382l-2.06 1.015a3.592 3.592 0 000 6.453l2.06.99a3.59 3.59 0 001.573.347h2.822v5.528H3.831c-1.564 0-2.855-1.256-2.855-2.82V18.064z" fill="#57C460"/><path d="M26.525 28.188a1.748 1.748 0 100 3.495 1.748 1.748 0 000-3.495zm0 2.52a.773.773 0 110-1.546.773.773 0 010 1.547zm-22.46-8.242a.488.488 0 00.488-.488v-.512a.488.488 0 00-.976 0v.512a.488.488 0 00.488.488zm0 9.349a.488.488 0 00.488-.487v-7.805a.488.488 0 00-.976 0v7.805a.488.488 0 00.488.487z" fill="#57C460"/></svg>