<svg width="25" height="42" fill="none" xmlns="http://www.w3.org/2000/svg"><path d="M21.966 1H3.14A2.142 2.142 0 001 3.14v35.72A2.141 2.141 0 003.14 41h18.826a2.141 2.141 0 002.14-2.14V3.14A2.142 2.142 0 0021.965 1zM3.14 1.518h18.827a1.623 1.623 0 011.621 1.622v2.785H1.518V3.14A1.623 1.623 0 013.14 1.518h0zm20.448 4.925V35.56H1.518V6.443h22.07zm-1.62 34.039H3.138a1.623 1.623 0 01-1.62-1.621v-2.783h22.068v2.783a1.623 1.623 0 01-1.62 1.62z" fill="#57C460" stroke="#57C460" stroke-width=".6"/><path d="M5.55 18.01l.276.275-.275-.275c-.066.066-.127.08-.147.08-.017 0-.071-.012-.132-.067-.111-.142-.076-.29-.014-.351a10.2 10.2 0 014.368-2.576 3.448 3.448 0 00-.004.484 9.9 9.9 0 00-4.071 2.43zm9.866-2.46a3.234 3.234 0 00-.007-.457 10.53 10.53 0 014.355 2.52c.105.134.08.272.025.34-.142.108-.288.073-.35.012h0l-.006-.007a10.224 10.224 0 00-4.017-2.408zm-7.84 4.394a7.129 7.129 0 012.41-1.585l.054.441a6.435 6.435 0 00-2.17 1.437c-.067.067-.128.081-.147.081-.02 0-.08-.015-.147-.08l-.353.353.353-.354a.214.214 0 010-.293zm9.637.293A6.434 6.434 0 0015.04 18.8l.055-.44a7.688 7.688 0 012.458 1.587c.07.074.073.2.008.278-.142.11-.288.074-.35.012zM9.95 22.59c-.018 0-.072-.012-.133-.067-.107-.137-.078-.279-.02-.344.194-.172.396-.33.607-.47l.057.487a3.016 3.016 0 00-.365.314l.354.354-.354-.354c-.066.066-.127.08-.146.08zm4.99-.08a3.641 3.641 0 00-.324-.28l.061-.521c.206.137.403.29.593.456.098.132.072.267.019.333-.142.109-.288.073-.35.012zm-2.334-.328h-.04l-.847-6.695a.887.887 0 01.867-.987c.486 0 .864.402.864.864v.15l-.844 6.668zm-.929 2.908c0-.461.378-.863.864-.863.507 0 .909.423.909.864a.916.916 0 01-.91.909c-.44 0-.863-.402-.863-.91z" stroke="#57C460"/><path d="M12.553 37.21a1.07 1.07 0 10-.001 2.14 1.07 1.07 0 000-2.14zm0 1.88a.81.81 0 11-.001-1.621.81.81 0 010 1.622zM10.778 3.98h3.549a.259.259 0 100-.518h-3.549a.26.26 0 000 .519z" fill="#57C460" stroke="#57C460" stroke-width=".6"/></svg>