<svg width="29" height="32" fill="none" xmlns="http://www.w3.org/2000/svg"><path d="M14.063 0C9.41 0 5.624 3.785 5.624 8.438c0 4.652 3.785 8.437 8.438 8.437 4.652 0 8.437-3.785 8.437-8.438C22.5 3.785 18.715 0 14.062 0zm0 15A6.57 6.57 0 017.5 8.437a6.57 6.57 0 016.563-6.562 6.57 6.57 0 016.562 6.563A6.57 6.57 0 0114.062 15zm10.497 7.387c-2.31-2.345-5.372-3.637-8.622-3.637h-3.75c-3.251 0-6.313 1.292-8.623 3.637A12.296 12.296 0 000 31.062c0 .518.42.938.938.938h26.25c.517 0 .937-.42.937-.938 0-3.26-1.266-6.34-3.565-8.675zM1.916 30.125c.47-5.318 4.897-9.5 10.271-9.5h3.75c5.375 0 9.802 4.182 10.272 9.5H1.916z" fill="#57C460"/></svg>