<svg width="34" height="34" fill="none" xmlns="http://www.w3.org/2000/svg"><path d="M33 17c0 8.818-7.182 16-16 16S1 25.818 1 17A16.06 16.06 0 016.12 5.267H3.844a.713.713 0 01-.71-.711c0-.392.32-.712.71-.712h4.267c.071 0 .178 0 .249.036.036 0 .071.036.107.036h.035c.036 0 .036.035.071.07 0 0 .036 0 .036.036l.071.071.036.036c0 .035.035.035.035.071 0 .036.036.036.036.071v.036a.605.605 0 01.035.249v4.266c0 .391-.32.711-.71.711a.713.713 0 01-.712-.71V6.048A14.621 14.621 0 002.422 17c0 8.036 6.542 14.578 14.578 14.578S31.578 25.036 31.578 17 25.036 2.422 17 2.422a.713.713 0 01-.711-.71c0-.392.32-.712.711-.712 8.818 0 16 7.182 16 16zM7.756 17c0-5.084 4.16-9.244 9.244-9.244s9.244 4.16 9.244 9.244-4.16 9.244-9.244 9.244S7.756 22.084 7.756 17zm1.422 0c0 4.302 3.52 7.822 7.822 7.822s7.822-3.52 7.822-7.822S21.302 9.178 17 9.178 9.178 12.698 9.178 17zm7.822.711h3.556c.39 0 .71-.32.71-.711a.713.713 0 00-.71-.711H17.71v-4.267a.713.713 0 00-.711-.71.713.713 0 00-.711.71V17c0 .391.32.711.711.711z" fill="#57C460" stroke="#57C460" stroke-width=".3"/></svg>