<svg width="200" height="67" fill="none" xmlns="http://www.w3.org/2000/svg"><path d="M0 65.144V62.06c.47-.032.843-.146 1.12-.34.278-.195.528-.606.752-1.233.235-.627.427-1.536.576-2.726l.657-5.434h6.529v9.62h.976v3.196H9.282v-1.996H1.328v1.996H0zm3.76-7.284c-.245 2.087-.789 3.45-1.632 4.088h6.178v-8.42H4.288L3.76 57.86zm13.182 5.483c-1.153 0-2.097-.379-2.833-1.136-.736-.767-1.104-1.763-1.104-2.985 0-1.146.363-2.114 1.088-2.903.726-.8 1.632-1.2 2.72-1.2 1.142 0 2.044.4 2.705 1.2.672.79 1.008 1.79 1.008 3v.309H14.27c.053.768.33 1.411.832 1.93.502.52 1.152.78 1.953.78.96 0 1.755-.33 2.384-.99l.576.794c-.79.8-1.813 1.2-3.072 1.2zm2.4-4.607a2.827 2.827 0 00-.672-1.8c-.438-.542-1.062-.812-1.873-.812-.768 0-1.376.265-1.824.795a3.006 3.006 0 00-.704 1.817h5.073zm3.416 4.607v-1.006c.363 0 .662-.243.896-.73.235-.486.427-1.298.576-2.433l.497-3.861h5.377v7.835h-1.2v-6.765h-3.121l-.352 2.937c-.171 1.438-.47 2.471-.896 3.098-.427.617-1.02.925-1.777.925zm16.975-.195h-1.2v-.892c-.65.725-1.504 1.087-2.56 1.087a2.82 2.82 0 01-1.889-.698c-.544-.465-.816-1.097-.816-1.898 0-.822.267-1.454.8-1.898a2.882 2.882 0 011.905-.681c1.099 0 1.952.357 2.56 1.07v-1.41c0-.52-.181-.925-.544-1.217-.363-.292-.832-.438-1.408-.438-.907 0-1.696.362-2.369 1.087l-.56-.844c.822-.865 1.851-1.298 3.089-1.298.885 0 1.605.216 2.16.649.555.433.832 1.098.832 1.995v5.386zm-3.328-.681c.96 0 1.67-.325 2.128-.973v-1.477c-.459-.649-1.168-.973-2.128-.973-.555 0-1.014.162-1.376.487-.353.313-.529.724-.529 1.233 0 .497.176.908.529 1.232.362.314.821.47 1.376.47zm10.423.876c-1.152 0-2.096-.379-2.832-1.136-.736-.767-1.105-1.763-1.105-2.985 0-1.146.363-2.114 1.089-2.903.725-.8 1.632-1.2 2.72-1.2 1.142 0 2.043.4 2.705 1.2.672.79 1.008 1.79 1.008 3v.309h-6.257c.053.768.33 1.411.832 1.93.501.52 1.152.78 1.952.78.96 0 1.755-.33 2.385-.99l.576.794c-.79.8-1.814 1.2-3.073 1.2zm2.4-4.607a2.826 2.826 0 00-.672-1.8c-.437-.542-1.061-.812-1.872-.812-.768 0-1.376.265-1.824.795a3.007 3.007 0 00-.704 1.817h5.073zm12.219 4.412h-1.2V57l-2.513 6.148h-.448L54.757 57v6.148h-1.2v-7.835h1.584l2.369 5.807 2.336-5.807h1.6v7.835zm12.728.195c-1.088 0-1.958-.46-2.608-1.379v4.17h-1.2V55.312h1.2v1.168a3.218 3.218 0 011.12-.99 3.072 3.072 0 011.488-.373c1.024 0 1.851.373 2.48 1.12.64.735.96 1.73.96 2.984 0 1.255-.32 2.255-.96 3.002-.629.746-1.456 1.119-2.48 1.119zm-.304-1.087c.758 0 1.36-.281 1.808-.843.448-.574.672-1.304.672-2.19 0-.887-.224-1.612-.672-2.174-.448-.563-1.05-.844-1.808-.844-.459 0-.907.124-1.344.373-.427.238-.747.53-.96.876v3.537c.213.357.533.66.96.908a2.78 2.78 0 001.344.357zm12.887.892h-1.2v-.892c-.651.725-1.505 1.087-2.561 1.087a2.82 2.82 0 01-1.888-.698c-.544-.465-.817-1.097-.817-1.898 0-.822.267-1.454.8-1.898a2.881 2.881 0 011.905-.681c1.099 0 1.952.357 2.56 1.07v-1.41c0-.52-.181-.925-.544-1.217-.363-.292-.832-.438-1.408-.438-.907 0-1.696.362-2.368 1.087l-.56-.844c.821-.865 1.85-1.298 3.088-1.298.885 0 1.606.216 2.16.649.555.433.833 1.098.833 1.995v5.386zm-3.329-.681c.96 0 1.67-.325 2.128-.973v-1.477c-.458-.649-1.168-.973-2.128-.973-.555 0-1.014.162-1.376.487-.352.313-.528.724-.528 1.233 0 .497.176.908.528 1.232.362.314.821.47 1.376.47zm8.423-1.087c.47.584 1.099.876 1.888.876.79 0 1.414-.292 1.873-.876.458-.595.688-1.32.688-2.174 0-.833-.23-1.54-.688-2.125-.46-.584-1.083-.876-1.873-.876s-1.419.292-1.888.876c-.459.584-.688 1.292-.688 2.125 0 .855.23 1.58.688 2.174zm1.888 1.963c-1.162 0-2.09-.416-2.784-1.25-.694-.832-1.04-1.908-1.04-3.228 0-1.86.33-3.233.992-4.12.661-.898 1.68-1.438 3.056-1.622.822-.13 1.387-.254 1.697-.373.32-.12.48-.26.48-.422h1.168c0 .303-.09.568-.272.795-.181.216-.443.39-.784.519-.33.13-.646.232-.944.308-.288.065-.635.124-1.04.179-1.067.151-1.84.448-2.321.892-.47.443-.779 1.033-.928 1.768.704-1.114 1.675-1.67 2.912-1.67 1.067 0 1.937.394 2.609 1.183.672.79 1.008 1.758 1.008 2.904 0 1.168-.347 2.152-1.04 2.953-.694.79-1.616 1.184-2.769 1.184zm13.205-1.184c-.693.79-1.616 1.184-2.768 1.184-1.153 0-2.081-.395-2.785-1.184-.693-.79-1.04-1.768-1.04-2.937 0-1.168.347-2.14 1.04-2.92.704-.79 1.632-1.184 2.785-1.184 1.152 0 2.075.395 2.768 1.184.704.78 1.056 1.752 1.056 2.92 0 1.169-.352 2.147-1.056 2.937zm-4.657-.779c.47.584 1.099.876 1.889.876.789 0 1.413-.292 1.872-.876.459-.595.688-1.314.688-2.158 0-.843-.229-1.557-.688-2.14-.459-.585-1.083-.877-1.872-.877-.79 0-1.419.297-1.889.892-.458.584-.688 1.293-.688 2.125 0 .844.23 1.563.688 2.158zm11.479 1.768h-1.201v-6.765h-2.24v-1.07h5.697v1.07h-2.256v6.765zm4.598 3.066l.192-1.103c.192.087.411.13.656.13.277 0 .507-.06.688-.178.182-.12.336-.336.464-.65l.512-1.184-3.232-7.916h1.296l2.577 6.424 2.56-6.424h1.312l-3.872 9.425c-.427 1.038-1.185 1.568-2.273 1.59-.32 0-.613-.038-.88-.114zm14.371 0l.192-1.103c.192.087.411.13.656.13.278 0 .507-.06.689-.178.181-.12.336-.336.464-.65l.512-1.184-3.233-7.916h1.296l2.577 6.424 2.56-6.424h1.313l-3.873 9.425c-.427 1.038-1.184 1.568-2.273 1.59-.32 0-.613-.038-.88-.114zm8.566-1.07v-3.002c.394-.075.704-.313.928-.713.224-.411.405-1.163.544-2.255l.496-3.861h5.377v6.765h.896v3.066h-1.2v-1.996h-5.841v1.996h-1.2zm3.024-8.76l-.352 2.936c-.181 1.373-.555 2.292-1.12 2.758h4.593v-5.695h-3.121zm14.203 5.775c-.693.79-1.616 1.184-2.768 1.184-1.152 0-2.08-.395-2.785-1.184-.693-.79-1.04-1.768-1.04-2.937 0-1.168.347-2.14 1.04-2.92.705-.79 1.633-1.184 2.785-1.184 1.152 0 2.075.395 2.768 1.184.705.78 1.057 1.752 1.057 2.92 0 1.169-.352 2.147-1.057 2.937zm-4.656-.779c.469.584 1.098.876 1.888.876.789 0 1.414-.292 1.872-.876.459-.595.688-1.314.688-2.158 0-.843-.229-1.557-.688-2.14-.458-.585-1.083-.877-1.872-.877-.79 0-1.419.297-1.888.892-.459.584-.688 1.293-.688 2.125 0 .844.229 1.563.688 2.158zm10.358 0c.469.584 1.099.876 1.888.876.79 0 1.414-.292 1.872-.876.459-.595.689-1.32.689-2.174 0-.833-.23-1.54-.689-2.125-.458-.584-1.082-.876-1.872-.876-.789 0-1.419.292-1.888.876-.459.584-.688 1.292-.688 2.125 0 .855.229 1.58.688 2.174zm1.888 1.963c-1.163 0-2.091-.416-2.784-1.25-.694-.832-1.041-1.908-1.041-3.228 0-1.86.331-3.233.993-4.12.661-.898 1.68-1.438 3.056-1.622.822-.13 1.387-.254 1.696-.373.32-.12.481-.26.481-.422h1.168c0 .303-.091.568-.272.795-.182.216-.443.39-.784.519-.331.13-.646.232-.945.308a12.35 12.35 0 01-1.04.179c-1.067.151-1.84.448-2.32.892-.47.443-.779 1.033-.928 1.768.704-1.114 1.675-1.67 2.912-1.67 1.067 0 1.936.394 2.609 1.183.672.79 1.008 1.758 1.008 2.904 0 1.168-.347 2.152-1.04 2.953-.694.79-1.617 1.184-2.769 1.184zm8.26-.195h-1.2v-7.835h1.2v3.26h4.033v-3.26h1.2v7.835h-1.2v-3.504h-4.033v3.504zm14.975-.989c-.694.79-1.616 1.184-2.769 1.184-1.152 0-2.08-.395-2.784-1.184-.694-.79-1.04-1.768-1.04-2.937 0-1.168.346-2.14 1.04-2.92.704-.79 1.632-1.184 2.784-1.184 1.153 0 2.075.395 2.769 1.184.704.78 1.056 1.752 1.056 2.92 0 1.169-.352 2.147-1.056 2.937zm-4.657-.779c.469.584 1.099.876 1.888.876.79 0 1.414-.292 1.873-.876.458-.595.688-1.314.688-2.158 0-.843-.23-1.557-.688-2.14-.459-.585-1.083-.877-1.873-.877-.789 0-1.419.297-1.888.892-.459.584-.688 1.293-.688 2.125 0 .844.229 1.563.688 2.158zm10.022 1.768h-1.152v-7.835h1.2v5.986l4.049-5.986H200v7.835h-1.2v-6.1l-4.081 6.1zm4.865-10.155c-.694.952-1.627 1.428-2.801 1.428-1.162 0-2.101-.476-2.816-1.428l.592-.52c.555.78 1.296 1.169 2.224 1.169.939 0 1.675-.39 2.209-1.168l.592.519z" fill="#8B8B8B"/><path fill-rule="evenodd" clip-rule="evenodd" d="M1.102 32.925c-.02 1.462.277 2.693 1.205 3.85a5.594 5.594 0 003.095 1.958c.436.1.855.133 1.278.144h28.959V8.91c0-.887.055-2.413-.115-3.217a5.54 5.54 0 00-2.903-3.77c-.935-.474-1.698-.607-2.742-.6-3.317.023-6.708 0-10.032 0l.009 3.872h11.809l-.01 29.8-26.566-.006v-2.067l-3.987.003z" fill="#1F1F1F"/><path d="M18.388 17.03l-5.64 14.445H7.786l9.337-22.62h2.626l9.208 22.62h-4.961L18.388 17.03z" fill="#00502A"/><path d="M18.372 29.965a2.689 2.689 0 002.693-2.684 2.689 2.689 0 00-2.693-2.684 2.688 2.688 0 00-2.693 2.684 2.688 2.688 0 002.693 2.684z" fill="#00502A"/><path fill-rule="evenodd" clip-rule="evenodd" d="M6.184 6.43v25.045H0V0h18.451v6.43H6.184z" fill="#00502A"/><path fill-rule="evenodd" clip-rule="evenodd" d="M56.648 35.441h35.854v.99H56.648v-.99zm100.654 0h35.854v.99h-35.854v-.99z" fill="#1F1F1F"/><path d="M52.26 20.634V1h14.038v3.685h-9.113v15.95H52.26zm26.592-8.098l-2.167-8.17-2.19 8.17h4.357zm2.144 8.098l-1.183-4.418h-6.301l-1.183 4.418h-4.555L73.656 1h6.5l5.837 19.634h-4.997zm14.232-4.148v.468h6.279V4.684h-5.245l-.072 8.464c-.018.769-.104 1.448-.262 2.038-.154.589-.388 1.021-.7 1.3zm-2.338 4.148v3.68h-4.925v-7.36h2.339c.311-.23.55-.625.713-1.193.162-.562.253-1.457.27-2.685L91.438 1h14.995v15.954h2.46v7.36h-4.925v-3.68H92.89zm27.255-8.467l-3.444 8.467h-4.902l4.775-10.82L111.726 1h4.799l4.04 7.977h.884V1h4.433v7.977h.889L130.807 1h4.803l-4.853 8.787 4.776 10.847h-4.898l-3.448-8.467h-1.305v8.467h-4.433v-8.467h-1.304zm18.295 8.467V1h14.774v3.685h-9.85v3.68h8.617v3.68h-8.617v4.909h9.85v3.68H138.44zm24.623 0V4.684h-6.152V1h17.234v3.685h-6.157v15.95h-4.925zm14.774 0V1h4.925v5.89h3.029c2.216 0 3.909.458 5.073 1.376 1.165.918 1.747 2.25 1.747 4v2.7c0 1.848-.582 3.257-1.747 4.22-1.164.967-2.866 1.448-5.096 1.448h-7.931zm17.239 0V1H200v19.634h-4.924zm-12.314-3.68h2.216c.984 0 1.684-.194 2.095-.576.41-.387.613-1.021.613-1.903v-1.548c0-.85-.203-1.453-.613-1.813-.411-.36-1.111-.54-2.095-.54h-2.216v6.38zm-85.725 21.76V31.85h3.564c.797 0 1.375.127 1.734.382s.538.665.538 1.231v.291c0 .378-.08.657-.241.837-.161.18-.421.302-.783.365v.248c.39.04.69.173.9.4.208.224.314.51.314.852v.447c0 .628-.199 1.088-.595 1.377-.396.288-1.027.433-1.893.433h-3.538zm1.722-4.118h1.584c.298 0 .511-.042.637-.128.126-.087.189-.232.189-.438v-.412c0-.206-.063-.352-.189-.437-.126-.086-.339-.129-.637-.129h-1.584v1.544zm0 2.916h1.549c.379 0 .645-.052.8-.159.156-.105.233-.281.233-.527v-.446c0-.246-.077-.422-.233-.527-.155-.105-.421-.159-.8-.159h-1.55v1.818zm14.458-1.63l-.757-2.855-.765 2.856h1.522zm.75 2.832l-.414-1.545h-2.202l-.414 1.545h-1.592l2.056-6.863h2.272l2.04 6.863h-1.746zm2.865 0V31.85h2.944c.786 0 1.395.174 1.829.523.434.35.65.835.65 1.458v.944c0 .596-.216 1.057-.65 1.385-.434.329-1.04.494-1.821.494h-1.231v2.059h-1.721zm1.721-3.345h.947c.374 0 .639-.063.797-.189.158-.126.236-.338.236-.635v-.541c0-.309-.078-.53-.236-.664-.158-.135-.423-.201-.797-.201h-.947v2.23zm5.164 3.345V31.85h5.164v1.288h-3.442v1.286h3.012v1.287h-3.012v1.715h3.442v1.287h-5.164zm6.886 0V31.85h1.721v2.403h2.583V31.85h1.721v6.863h-1.721V35.54h-2.583v3.174h-1.721zm9.855-1.45v.163h2.194V33.14h-1.833l-.025 2.958a3.09 3.09 0 01-.092.712c-.054.206-.135.357-.244.455zm-.818 1.45V40h-1.721v-2.573h.817c.109-.08.193-.218.25-.416.056-.197.088-.51.094-.94l.052-4.22h5.242v5.576h.86V40h-1.722v-1.286h-3.872zm8.279.051c-.183 0-.372-.012-.568-.034a7.536 7.536 0 01-.585-.095l.146-1.286a7.9 7.9 0 00.551.107c.167.025.319.038.456.038.27 0 .489-.058.659-.175.169-.118.311-.311.426-.58l.068-.171h-.68l-2.09-4.718h1.678l1.558 3.637 1.54-3.637h1.686l-2.289 5.276c-.264.612-.622 1.038-1.075 1.278-.454.24-.946.36-1.481.36z" fill="#1F1F1F"/></svg>