<svg width="15" height="16" fill="none" xmlns="http://www.w3.org/2000/svg"><path fill-rule="evenodd" clip-rule="evenodd" d="M.464 13.55c-.009.602.116 1.109.507 1.585A2.36 2.36 0 002.81 16h12.186V3.667c0-.365.023-.993-.049-1.324A2.288 2.288 0 0013.726.791c-.393-.194-.714-.25-1.153-.246-1.396.01-2.823 0-4.222 0l.004 1.593h4.969l-.004 12.265L2.141 14.4v-.85H.464z" fill="#000"/><path d="M7.738 7.009l-2.374 5.945H3.277l3.929-9.31H8.31l3.874 9.31h-2.087l-2.36-5.945z" fill="#005028"/><path d="M7.73 12.333c.626 0 1.133-.495 1.133-1.105s-.507-1.105-1.133-1.105-1.133.495-1.133 1.105.507 1.105 1.133 1.105z" fill="#005028"/><path fill-rule="evenodd" clip-rule="evenodd" d="M2.602 2.646v10.308H0V0h7.764v2.646H2.602z" fill="#00502A"/></svg>