<svg width="37" height="32" fill="none" xmlns="http://www.w3.org/2000/svg"><path d="M37 18.587a18.57 18.57 0 00-5.334-13.044.918.918 0 00-.183-.184C28.14 2.047 23.554 0 18.5 0S8.86 2.047 5.517 5.36a.91.91 0 00-.183.184A18.57 18.57 0 000 18.586 18.51 18.51 0 005.417 31.73l.002.001v.001l.002.002a.905.905 0 001.287 0l.042-.048 2.804-2.817a.917.917 0 000-1.293.907.907 0 00-1.287 0L6.08 29.773a16.658 16.658 0 01-4.235-10.272h3.094c.502 0 .91-.409.91-.914a.912.912 0 00-.91-.914H1.845a16.733 16.733 0 014.24-10.266l2.183 2.192a.905.905 0 001.286 0 .917.917 0 000-1.293L7.372 6.114a16.573 16.573 0 0110.218-4.26v3.108c0 .505.407.914.91.914.503 0 .91-.409.91-.914V1.853a16.574 16.574 0 0110.218 4.261l-2.182 2.192a.917.917 0 000 1.293.905.905 0 001.286 0l2.182-2.192a16.733 16.733 0 014.241 10.266h-3.094c-.503 0-.91.41-.91.914 0 .505.407.914.91.914h3.094a16.658 16.658 0 01-4.235 10.272l-2.188-2.198a.907.907 0 00-1.286 0 .917.917 0 000 1.293l2.849 2.862a.905.905 0 001.286 0A18.51 18.51 0 0037 18.587z" fill="#57C460"/><path d="M22.68 8.104a.908.908 0 00-1.183.509l-2.63 6.594a3.372 3.372 0 00-3.387 1.838c-.607 1.199-.451 2.631.418 3.832.088.123.2.235.323.325.706.515 1.494.787 2.28.787 1.28 0 2.437-.712 3.018-1.86.608-1.199.452-2.631-.415-3.83a1.484 1.484 0 00-.325-.327 4.425 4.425 0 00-.201-.137l2.608-6.542a.915.915 0 00-.506-1.189zM19.898 19.3c-.27.531-.805.861-1.398.861-.389 0-.78-.136-1.163-.405-.437-.63-.523-1.313-.234-1.882a1.56 1.56 0 011.397-.861c.19 0 .379.033.568.097l.018.008c.02.008.04.014.06.02.173.068.346.16.517.28.437.63.523 1.313.235 1.882z" fill="#57C460"/></svg>