<svg width="28" height="34" fill="none" xmlns="http://www.w3.org/2000/svg"><path d="M1 29.96c0 1.683 1.383 3.038 3.065 3.038h22.037a.38.38 0 00.394-.377v-4.827h.404c.343 0 .636-.25.636-.593v-6.105a.661.661 0 00-.636-.651h-.47v-5.201a.393.393 0 00-.392-.393H24.48V1.375c0-.216-.197-.377-.413-.377H5.742a.374.374 0 00-.384.377v8.273H4.056c-1.647 0-3.022 1.303-3.041 2.95-.002.101.002.202.012.302H1v17.06zm25.756-8.735v5.789h-3.298a2.086 2.086 0 01-.917-.198l-1.648-.797a2.085 2.085 0 010-3.75l1.648-.818c.285-.143.598-.22.917-.226h3.298zM9.586 1.778h14.113v13.073h-1.132a5.903 5.903 0 00-.039-.387v-9.47a.39.39 0 00-.39-.39c-.797 0-1.348-.539-1.372-1.341a.39.39 0 00-.39-.379h-7.532a.39.39 0 00-.39.379c-.021.727-.77 1.341-1.633 1.341a.39.39 0 00-.39.39v9.858h-.846V1.778zm7.053 7.523c-2.417 0-4.501 1.464-5.428 3.538V5.356c.978-.145 1.77-.826 1.974-1.691h6.842a2.067 2.067 0 001.72 1.688v6.87a5.953 5.953 0 00-5.108-2.922zm5.109 5.215v.335h-.706c-.2-2.23-2.098-4.03-4.403-4.03-2.305 0-4.203 1.8-4.403 4.03h-.74a5.16 5.16 0 0110.252-.335zM7.894 1.778h.91v13.073h-.91V1.778zm-1.756 0h.976v13.073h-.976V1.778zm-2.116 8.65h1.336v4.423h-1.31c-1.217 0-2.236-.964-2.253-2.18a2.215 2.215 0 012.227-2.242zM1.78 14.653c.586.603 1.36.98 2.242.98h9.336a.39.39 0 100-.78h-.339a3.641 3.641 0 017.24 0h-4.3a.39.39 0 100 .78h9.691v4.813h-2.192c-.438.006-.868.11-1.259.306l-1.648.811a2.875 2.875 0 000 5.164l1.648.79c.393.188.823.282 1.259.278h2.257v4.423H4.065c-1.252 0-2.285-1.005-2.285-2.256V14.65z" fill="#57C460" stroke="#57C460" stroke-width=".2"/><path d="M22.22 22.75a1.399 1.399 0 100 2.797 1.399 1.399 0 000-2.797zm0 2.017a.618.618 0 110-1.238.618.618 0 010 1.238v0zM4.252 18.172a.39.39 0 00.39-.39v-.41a.39.39 0 00-.78 0v.41a.39.39 0 00.39.39zm0 7.48a.39.39 0 00.39-.39v-6.244a.39.39 0 00-.78 0v6.244a.39.39 0 00.39.39z" fill="#57C460" stroke="#57C460" stroke-width=".2"/></svg>