<svg width="36" height="33" fill="none" xmlns="http://www.w3.org/2000/svg"><path d="M32.187 3.622h-2.254V1.835A.938.938 0 0028.997.9a.938.938 0 00-.935.935v1.787h-9.167V1.835A.938.938 0 0017.96.9a.938.938 0 00-.936.935v1.787h-9.26V1.835A.938.938 0 006.828.9a.938.938 0 00-.935.935v1.787h-2.16C1.673 3.622 0 5.352 0 7.41v21.748A3.733 3.733 0 003.732 32.9h28.446a3.73 3.73 0 003.732-3.732V7.41c.01-2.058-1.665-3.788-3.723-3.788zm1.861 25.536a1.866 1.866 0 01-1.852 1.871H3.732a1.86 1.86 0 01-1.861-1.861V7.41c0-1.038.832-1.917 1.861-1.917h2.161v1.356c0 .515.42.935.935.935.515 0 .936-.42.936-.935V5.493h9.26v1.356c0 .515.421.935.936.935.514 0 .935-.42.935-.935V5.493h9.167v1.356c0 .515.42.935.935.935.515 0 .936-.42.936-.935V5.493h2.254c1.038 0 1.861.888 1.861 1.917v21.748z" fill="#57C460"/><path d="M15.5 11.573h-1.637a.938.938 0 00-.936.935c0 .515.421.936.936.936H15.5a.938.938 0 00.935-.936.938.938 0 00-.935-.935zm6.51 0h-1.637a.938.938 0 00-.936.935c0 .515.421.936.936.936h1.637a.938.938 0 00.935-.936.932.932 0 00-.935-.935zm6.566 0H26.94a.938.938 0 00-.935.935c0 .515.42.936.935.936h1.637a.938.938 0 00.936-.936.938.938 0 00-.936-.935zM15.5 18.027h-1.637a.938.938 0 00-.936.935c0 .515.421.936.936.936H15.5a.938.938 0 00.935-.936.938.938 0 00-.935-.935zm-6.557 0H7.296a.938.938 0 00-.935.935c0 .515.42.936.935.936h1.637a.938.938 0 00.936-.936.93.93 0 00-.926-.935zm13.067 0h-1.637a.938.938 0 00-.936.935c0 .515.421.936.936.936h1.637a.938.938 0 00.935-.936.932.932 0 00-.935-.935zm6.566 0H26.94a.938.938 0 00-.935.935c0 .515.42.936.935.936h1.637a.938.938 0 00.936-.936.938.938 0 00-.936-.935zM15.5 24.388h-1.637a.938.938 0 00-.936.935c0 .515.421.936.936.936H15.5a.938.938 0 00.935-.936.938.938 0 00-.935-.935zm-6.557 0H7.296a.938.938 0 00-.935.935c0 .515.42.936.935.936h1.637a.938.938 0 00.936-.936.93.93 0 00-.926-.935zm13.067 0h-1.637a.938.938 0 00-.936.935c0 .515.421.936.936.936h1.637a.938.938 0 00.935-.936.932.932 0 00-.935-.935z" fill="#57C460"/></svg>