<svg width="24" height="32" fill="none" xmlns="http://www.w3.org/2000/svg"><path d="M23.805 6.862L17.135.195a.666.666 0 00-.47-.195H2.666A2.67 2.67 0 000 2.667v26.666A2.67 2.67 0 002.667 32h18.666A2.67 2.67 0 0024 29.333v-22a.666.666 0 00-.195-.471zm-1.138 22.471c0 .735-.599 1.334-1.334 1.334H2.667a1.335 1.335 0 01-1.334-1.334V2.667c0-.735.599-1.334 1.334-1.334h13.721l6.279 6.276v21.724z" fill="#57C460"/><path d="M4 14v12c0 1.103.897 2 2 2h12c1.103 0 2-.897 2-2V14c0-1.103-.897-2-2-2H6c-1.103 0-2 .897-2 2zm4.667 12.667H6A.667.667 0 015.333 26v-2.667h3.334v3.334zm5.333 0h-4v-3.334h4v3.334zM18.667 26a.667.667 0 01-.667.667h-2.667v-4a.666.666 0 00-.666-.667H5.333v-4h13.334v8zm-3.334-12.667H18c.368 0 .667.3.667.667v2.667h-3.334v-3.334zm-5.333 0h4v3.334h-4v-3.334zm-1.333 3.334H5.333V14c0-.368.3-.667.667-.667h2.667v3.334z" fill="#57C460"/></svg>