<svg width="24" height="32" fill="none" xmlns="http://www.w3.org/2000/svg"><path d="M21 32H3c-1.653 0-3-1.345-3-3V15c0-1.655 1.347-3 3-3h18c1.653 0 3 1.345 3 3v14c0 1.655-1.347 3-3 3zM3 14c-.55 0-1 .448-1 1v14c0 .552.45 1 1 1h18c.55 0 1-.448 1-1V15c0-.552-.45-1-1-1H3z" fill="#57C460"/><path d="M19 14a1 1 0 01-1-1V8c0-3.308-2.692-6-6-6S6 4.692 6 8v5a1 1 0 01-2 0V8c0-4.412 3.588-8 8-8s8 3.588 8 8v5a1 1 0 01-1 1zm-7 8.667A2.67 2.67 0 019.334 20 2.67 2.67 0 0112 17.334 2.67 2.67 0 0114.667 20 2.67 2.67 0 0112 22.667zm0-3.334a.668.668 0 000 1.334.668.668 0 000-1.334z" fill="#57C460"/><path d="M12 26.667a1 1 0 01-1-1V22a1 1 0 012 0v3.667a1 1 0 01-1 1z" fill="#57C460"/></svg>