<svg width="32" height="32" fill="none" xmlns="http://www.w3.org/2000/svg"><path d="M32 30.933H0V32h32v-1.067zM2.133 29.867h5.334A.533.533 0 008 29.333v-9.6a.533.533 0 00-.533-.533H2.133a.533.533 0 00-.533.534v9.6c0 .294.239.533.533.533zm.534-9.6h4.266V28.8H2.667v-8.533zm14.4 9.599H22.4a.533.533 0 00.533-.533v-16a.533.533 0 00-.533-.533h-5.333a.533.533 0 00-.534.533v16c0 .295.239.534.534.534zm.533-16h4.266V28.8H17.6V13.866zm-8 16.001h5.333a.533.533 0 00.533-.534v-22.4a.533.533 0 00-.533-.533H9.6a.533.533 0 00-.534.533v22.4c0 .295.24.534.534.534zm.533-22.4H14.4V28.8h-4.267V7.467zm14.4 22.4h5.334a.533.533 0 00.533-.534V.533A.533.533 0 0029.867 0h-5.334A.533.533 0 0024 .533v28.8c0 .295.239.534.533.534zm.534-28.8h4.266V28.8h-4.266V1.067z" fill="#57C460"/></svg>