<svg width="28" height="34" fill="none" xmlns="http://www.w3.org/2000/svg"><path d="M25.754 4.75L13.187 1.383a1.48 1.48 0 00-1.81 1.045l-6.39 23.843a1.48 1.48 0 001.046 1.81L18.6 31.45a1.48 1.48 0 001.81-1.046L26.8 6.56a1.48 1.48 0 00-1.045-1.81zm-12.66-3.022l12.567 3.368a1.122 1.122 0 01.792 1.372l-.498 1.859-14.73-3.947.498-1.86a1.121 1.121 0 011.371-.792h0zm12.768 6.945l-5.207 19.434-14.73-3.947 5.207-19.434 14.73 3.947zm-7.17 22.43L6.126 27.735a1.121 1.121 0 01-.792-1.371l.498-1.858 14.73 3.947-.498 1.858a1.121 1.121 0 01-1.372.792z" fill="#57C460" stroke="#57C460" stroke-width=".6"/><path d="M12.995 27.235a.74.74 0 10-.384 1.43.74.74 0 00.384-1.43zm-.337 1.256a.56.56 0 11.29-1.083.56.56 0 01-.29 1.082zm5.095-23.753l2.369.635a.18.18 0 00.092-.346l-2.368-.634a.18.18 0 00-.093.345z" fill="#57C460" stroke="#57C460" stroke-width=".6"/><path d="M15.488 5.36H2.478A1.48 1.48 0 001 6.837v24.684A1.48 1.48 0 002.478 33h13.01a1.48 1.48 0 001.478-1.478V6.838a1.48 1.48 0 00-1.478-1.479z" fill="#fff"/><path d="M15.488 5.36H2.478A1.48 1.48 0 001 6.837v24.684A1.48 1.48 0 002.478 33h13.01a1.48 1.48 0 001.478-1.478V6.838a1.48 1.48 0 00-1.478-1.479zm-13.01.357h13.01a1.121 1.121 0 011.12 1.12v1.926H1.358V6.838a1.121 1.121 0 011.12-1.12h0zm14.13 3.404v20.12H1.358V9.12h15.25zm-1.12 23.52H2.478a1.121 1.121 0 01-1.12-1.12V29.6h15.25v1.923a1.122 1.122 0 01-1.12 1.12z" fill="#57C460" stroke="#57C460" stroke-width=".6"/><path d="M8.983 30.381a.74.74 0 100 1.48.74.74 0 000-1.48zm0 1.3a.56.56 0 11-.001-1.12.56.56 0 010 1.12zM7.757 7.42h2.452a.179.179 0 000-.359H7.757a.179.179 0 100 .358z" fill="#57C460" stroke="#57C460" stroke-width=".6"/></svg>