<svg width="20" height="34" fill="none" xmlns="http://www.w3.org/2000/svg"><path d="M16.712 1H3.288C2.026 1 1 2.051 1 3.344v27.312C1 31.95 2.026 33 3.288 33h13.424C17.974 33 19 31.949 19 30.656V3.344C19 2.05 17.974 1 16.712 1zm1.373 25.438H5.119a.463.463 0 00-.458.468c0 .26.205.469.458.469h12.966v3.281c0 .776-.616 1.407-1.373 1.407H3.288c-.757 0-1.373-.631-1.373-1.407v-3.281h1.373c.253 0 .458-.21.458-.469a.463.463 0 00-.458-.468H1.915V5.688h16.17v20.75zm0-21.688H1.915V3.344c0-.776.616-1.406 1.373-1.406h13.424c.757 0 1.373.63 1.373 1.406V4.75z" fill="#57C460" stroke="#57C460" stroke-width=".3"/><path d="M6.838 13.838A2.852 2.852 0 018.861 13c.732 0 1.464.28 2.023.838a2.85 2.85 0 01.838 2.023c0 .732-.28 1.464-.838 2.023a2.852 2.852 0 01-2.023.838c-.732 0-1.464-.28-2.023-.838A2.852 2.852 0 016 15.861c0-.732.28-1.464.838-2.023zm2.023-.528c-.653 0-1.306.249-1.804.747a2.543 2.543 0 00-.747 1.804c0 .653.249 1.306.747 1.804a2.543 2.543 0 001.804.747c.653 0 1.306-.249 1.804-.747a2.543 2.543 0 00.747-1.804c0-.653-.249-1.306-.747-1.804a2.543 2.543 0 00-1.804-.747z" fill="#57C460" stroke="#57C460" stroke-width=".5"/><path d="M10.884 17.665a.155.155 0 00-.219.219l3.07 3.07a.155.155 0 10.22-.219l-3.07-3.07z" fill="#57C460" stroke="#57C460" stroke-width=".5"/><path d="M11.83 2.875H10a.463.463 0 00-.458.469c0 .259.205.469.458.469h1.83c.253 0 .458-.21.458-.47a.463.463 0 00-.457-.468zM10 28.313c-.757 0-1.373.63-1.373 1.406 0 .775.616 1.406 1.373 1.406s1.373-.63 1.373-1.406c0-.776-.616-1.407-1.373-1.407zm0 1.875a.464.464 0 01-.458-.47c0-.258.205-.468.458-.468.252 0 .457.21.457.469a.464.464 0 01-.457.468zM8.17 3.813c.252 0 .457-.21.457-.47a.463.463 0 00-.457-.468.463.463 0 00-.458.469c0 .259.205.469.458.469z" fill="#57C460" stroke="#57C460" stroke-width=".3"/></svg>