<svg width="32" height="32" fill="none" xmlns="http://www.w3.org/2000/svg"><path d="M10.532 18.521l-6.696 6.706a.692.692 0 00.47 1.18.664.664 0 00.472-.203l6.696-6.706a.692.692 0 000-.977c-.236-.27-.673-.27-.942 0zm-4.744 9.604a.664.664 0 00.47.202.664.664 0 00.472-.202l6.696-6.706a.69.69 0 10-.976-.977l-6.662 6.74a.652.652 0 000 .943z" fill="#57C460"/><path d="M30.25 21.352c-1.48-1.483-3.701-2.056-5.754-1.483l-4.778-4.819 7.37-7.38 1.715-.37c.303-.068.539-.236.673-.472l2.154-3.504c.27-.405.202-.944-.168-1.315L29.914.46C29.577.122 29.039.055 28.6.291l-3.465 2.156a1.188 1.188 0 00-.471.674l-.37 1.753-7.37 7.38-4.811-4.82c.134-.505.235-1.044.235-1.583 0-1.55-.606-3.033-1.716-4.145C8.917-.012 6.259-.484 4.072.526a.772.772 0 00-.404.506.68.68 0 00.202.607l2.187 2.19c.303.303.47.674.47 1.112 0 .438-.167.809-.47 1.112a1.583 1.583 0 01-2.221 0L1.649 3.83a.708.708 0 00-.606-.202c-.235.034-.404.202-.505.404C.202 4.806 0 5.615 0 6.491c0 1.55.64 3.067 1.716 4.145 1.48 1.516 3.701 2.055 5.72 1.483l2.625 2.628-9.119 9.098a2.527 2.527 0 000 3.572l3.6 3.606a2.52 2.52 0 003.567 0l9.12-9.099 2.624 2.629a6.388 6.388 0 00-.202 1.584c0 1.583.606 3.066 1.716 4.144A5.886 5.886 0 0025.506 32c.807 0 1.649-.169 2.422-.506a.772.772 0 00.404-.505.68.68 0 00-.202-.607l-2.187-2.224a1.53 1.53 0 01-.47-1.111c0-.405.167-.81.47-1.113.572-.572 1.615-.572 2.221 0l2.187 2.19c.169.17.37.237.606.203a.647.647 0 00.505-.37c.37-.742.538-1.585.538-2.46a6.022 6.022 0 00-1.75-4.145zm-4.845-15.67a.699.699 0 00.202-.337l.404-1.786 3.163-1.954 1.21 1.213-1.95 3.168-1.818.404a.698.698 0 00-.336.202l-7.538 7.515-.875-.876 7.538-7.549zM7.134 30.046c-.438.438-1.212.438-1.65 0l-3.532-3.572a1.096 1.096 0 01-.337-.81c0-.302.135-.606.337-.808l9.118-9.098 5.216 5.223-9.152 9.065zm23.386-3.674l-1.414-1.415c-1.144-1.078-3.096-1.044-4.139 0-.572.54-.874 1.28-.874 2.09 0 .808.302 1.516.874 2.089l1.414 1.415c-1.447.27-2.995-.168-4.038-1.213a4.514 4.514 0 01-1.313-3.201c0-.54.101-1.045.27-1.55a.627.627 0 00-.169-.708L8.11 10.839a.664.664 0 00-.47-.203c-.068 0-.169 0-.236.034-1.65.606-3.5.202-4.711-1.045C1.85 8.816 1.38 7.671 1.38 6.457c0-.303.033-.606.067-.876L2.86 6.997c1.144 1.145 3.03 1.145 4.14 0 .572-.54.875-1.28.875-2.09A2.75 2.75 0 007 2.852L5.586 1.437c1.447-.27 2.96.134 4.038 1.213.84.876 1.312 1.988 1.312 3.2 0 .54-.101 1.08-.27 1.517a.679.679 0 00.169.742l12.988 13.007a.702.702 0 00.707.168c1.649-.606 3.5-.202 4.71 1.011.842.876 1.313 1.988 1.313 3.201.034.304 0 .607-.034.877z" fill="#57C460"/></svg>