<svg width="41" height="33" fill="none" xmlns="http://www.w3.org/2000/svg"><path d="M34.526 5.386h-5.052a.84.84 0 01-.799-.576l-.532-1.597a4.205 4.205 0 00-3.995-2.88h-7.875a4.202 4.202 0 00-3.993 2.878l-.533 1.599a.844.844 0 01-.8.576H5.895A5.901 5.901 0 000 11.28v15.158a5.901 5.901 0 005.895 5.895h28.631a5.901 5.901 0 005.895-5.895V11.28a5.901 5.901 0 00-5.895-5.894zm4.21 21.052a4.215 4.215 0 01-4.21 4.21H5.895a4.215 4.215 0 01-4.21-4.21V11.28c0-2.32 1.889-4.21 4.21-4.21h5.052a2.525 2.525 0 002.397-1.726l.534-1.6a2.521 2.521 0 012.395-1.727h7.875c1.088 0 2.052.694 2.397 1.728l.532 1.598a2.525 2.525 0 002.397 1.727h5.052c2.321 0 4.21 1.89 4.21 4.21v15.158z" fill="#57C460"/><path d="M20.21 8.754c-5.572 0-10.105 4.532-10.105 10.105s4.533 10.105 10.106 10.105c5.573 0 10.105-4.532 10.105-10.105S25.784 8.754 20.211 8.754zm0 18.526c-4.643 0-8.42-3.777-8.42-8.42 0-4.644 3.777-8.422 8.42-8.422 4.644 0 8.422 3.778 8.422 8.421 0 4.644-3.778 8.421-8.421 8.421z" fill="#57C460"/><path d="M20.21 12.123a6.744 6.744 0 00-6.736 6.736.842.842 0 001.684 0 5.059 5.059 0 015.052-5.052.842.842 0 000-1.684z" fill="#57C460"/></svg>