<svg width="31" height="34" fill="none" xmlns="http://www.w3.org/2000/svg"><path d="M14.3 19.39a2.78 2.78 0 00-1.54.466 2.76 2.76 0 00-1.178 2.832c.107.535.37 1.026.758 1.412a2.774 2.774 0 003.02.598 2.767 2.767 0 001.243-1.016 2.75 2.75 0 00-.344-3.483 2.777 2.777 0 00-1.96-.808zm0 4.782a2.038 2.038 0 01-1.878-1.248 2.015 2.015 0 01.44-2.205 2.034 2.034 0 012.215-.439 2.03 2.03 0 011.254 1.87c0 .536-.215 1.05-.596 1.429a2.04 2.04 0 01-1.436.593z" fill="#57C460" stroke="#57C460" stroke-width=".5"/><path d="M14.3 15.345a6.863 6.863 0 00-3.798 1.146 6.81 6.81 0 00-2.517 3.054 6.777 6.777 0 001.482 7.416 6.863 6.863 0 007.448 1.475 6.829 6.829 0 003.067-2.506 6.785 6.785 0 001.152-3.78 6.797 6.797 0 00-2.004-4.81 6.857 6.857 0 00-4.83-1.995zm0 12.873a6.114 6.114 0 01-3.387-1.023 6.075 6.075 0 01-2.245-2.723 6.044 6.044 0 011.321-6.614 6.12 6.12 0 016.643-1.316 6.09 6.09 0 012.736 2.236 6.05 6.05 0 011.027 3.371 6.063 6.063 0 01-1.788 4.29 6.117 6.117 0 01-4.308 1.78z" fill="#57C460" stroke="#57C460" stroke-width=".5"/><path d="M28.892 4.31h-1.109V1.368A.367.367 0 0027.414 1a.37.37 0 00-.37.368V4.31h-4.433V1.368A.367.367 0 0022.242 1a.37.37 0 00-.37.368V4.31h-1.108a1.11 1.11 0 00-.783.324 1.1 1.1 0 00-.325.78v2.575c0 .585.234 1.146.65 1.56.415.414.979.646 1.567.646h2.586v8.034a10.855 10.855 0 00-4.002-5.032 10.928 10.928 0 00-12.315 0A10.855 10.855 0 004.14 18.23V8.723h.554c.49 0 .96-.194 1.306-.539a1.83 1.83 0 00.541-1.3V2.103a1.1 1.1 0 00-.324-.78A1.11 1.11 0 005.433 1H2.108a1.11 1.11 0 00-.783.323 1.101 1.101 0 00-.325.78v4.782c0 .488.195.956.541 1.3.346.345.816.54 1.306.54h.554v13.424c0 2.878 1.148 5.638 3.192 7.673A10.922 10.922 0 0014.3 33c2.89 0 5.663-1.143 7.707-3.178a10.826 10.826 0 003.192-7.673V10.195h2.585c.588 0 1.152-.232 1.568-.646a2.2 2.2 0 00.649-1.56V5.414a1.11 1.11 0 00-1.108-1.103zM1.739 6.885V2.103a.367.367 0 01.37-.367h3.324a.37.37 0 01.37.367v4.782a1.11 1.11 0 01-1.108 1.103H2.846a1.11 1.11 0 01-.784-.323 1.101 1.101 0 01-.324-.78zm12.56 25.38c-2.009 0-3.973-.594-5.644-1.705a10.125 10.125 0 01-3.742-4.54 10.074 10.074 0 01-.578-5.844 10.101 10.101 0 012.78-5.179 10.173 10.173 0 015.202-2.768c1.971-.39 4.014-.19 5.87.575a10.15 10.15 0 014.56 3.726 10.084 10.084 0 011.712 5.62 10.107 10.107 0 01-2.98 7.148 10.197 10.197 0 01-7.18 2.966zM29.261 7.988c0 .39-.155.764-.433 1.04a1.48 1.48 0 01-1.045.43h-5.91a1.48 1.48 0 01-1.045-.43 1.468 1.468 0 01-.433-1.04V5.414a.367.367 0 01.37-.368h8.127a.37.37 0 01.37.368v2.575z" fill="#57C460" stroke="#57C460" stroke-width=".5"/></svg>