<svg width="28" height="34" fill="none" xmlns="http://www.w3.org/2000/svg"><path d="M26.48 1a.518.518 0 00-.52.516v4.13c0 .998-.407 1.898-1.066 2.554a3.64 3.64 0 01-2.574 1.058H5.68A3.64 3.64 0 013.106 8.2 3.587 3.587 0 012.04 5.645V1.516A.518.518 0 001.52 1a.518.518 0 00-.52.516v4.13C1 8.21 3.095 10.29 5.68 10.29h4.68v5.594a1.57 1.57 0 001.575 1.563h.297v.86c0 .707.55 1.278 1.248 1.332v12.845c0 .285.232.516.52.516.287 0 .52-.231.52-.516V19.639a1.342 1.342 0 001.248-1.332v-.86h.297c.87 0 1.575-.7 1.575-1.563V10.29h4.68c2.585 0 4.68-2.08 4.68-4.645v-4.13A.519.519 0 0026.48 1zM14.728 18.307c0 .171-.14.31-.312.31h-.832a.312.312 0 01-.312-.31v-.86h1.456v.86zm1.872-2.423c0 .293-.24.53-.535.531h-4.13a.534.534 0 01-.535-.53V10.29h5.2v5.594z" fill="#57C460" stroke="#57C460" stroke-width=".5"/><path d="M14 6.235a.962.962 0 00.966-.958.962.962 0 00-.966-.959.962.962 0 00-.966.959c0 .53.432.958.966.958z" fill="#57C460" stroke="#57C460" stroke-width=".5"/></svg>