<svg width="32" height="34" fill="none" xmlns="http://www.w3.org/2000/svg"><path d="M29.756 12.594L26.97 9.762l.092-.392 3.045-.916a.553.553 0 00.39-.532.553.553 0 00-.39-.53l-3.045-.917-.664-2.835a.547.547 0 00-.53-.426.546.546 0 00-.529.426l-.663 2.835-.723.217-4.349-4.423A4.193 4.193 0 0016.595 1a4.19 4.19 0 00-3.01 1.269L3.435 12.594c-1.66 1.689-1.66 4.437 0 6.125l.509.517-.598 2.158c-.314 1.68-2.233 4.57-2.252 4.599a.561.561 0 00.065.703l6.038 6.142a.54.54 0 00.68.073l3.244-2.136a24.95 24.95 0 002.394-1.801l.07.07a4.191 4.191 0 003.01 1.269 4.19 4.19 0 003.01-1.269l10.15-10.325c1.66-1.689 1.66-4.436 0-6.125zm-4.468-5.148a.55.55 0 00.375-.403l.207-.882.206.882a.55.55 0 00.376.403l1.582.476-1.582.476a.55.55 0 00-.376.403l-.206.883-.207-.883a.55.55 0 00-.375-.403l-1.582-.476 1.582-.476zM10.529 29.845l-2.873 1.893-5.413-5.506c.56-.886 1.886-3.095 2.162-4.584l2.322-8.383a.927.927 0 011.008-.77.924.924 0 01.637.347.953.953 0 01.207.677l-1.083 4.773a.56.56 0 00.267.61.54.54 0 00.649-.094l7.817-7.952a.812.812 0 011.136 0 .82.82 0 01.236.578.82.82 0 01-.236.579s0 0 0 0l-5.751 5.85a.56.56 0 000 .784.538.538 0 00.77 0l7.34-7.467a.796.796 0 011.136 0 .82.82 0 01.236.578.82.82 0 01-.236.578l-1.918 1.951-.001.001-5.42 5.515a.56.56 0 000 .783.538.538 0 00.769 0l5.422-5.515a.813.813 0 011.161 0c.32.326.32.857 0 1.183l-1.563 1.59-4.15 4.222a.56.56 0 000 .783.538.538 0 00.77 0l.292-.297s0 0 0 0l3.858-3.925a.794.794 0 011.11 0 .8.8 0 01.231.565.802.802 0 01-.23.565l-6.764 6.881a23.952 23.952 0 01-3.898 3.207zm18.456-11.91l-10.15 10.326a3.121 3.121 0 01-2.24.944 3.119 3.119 0 01-2.24-.944l-.013-.014c.29-.269.577-.543.855-.825l6.764-6.881c.354-.36.549-.84.549-1.348 0-.51-.195-.989-.55-1.348a1.776 1.776 0 00-.69-.428l.373-.38a1.97 1.97 0 000-2.75 1.886 1.886 0 00-.718-.45l.705-.718a1.93 1.93 0 00.554-1.361 1.93 1.93 0 00-.554-1.362 1.872 1.872 0 00-2.676 0l-.382.389a1.907 1.907 0 00-.437-.712c-.714-.727-1.961-.728-2.676 0l-6.474 6.586.663-2.925a2.072 2.072 0 00-.43-1.59 2 2 0 00-1.38-.752 2.005 2.005 0 00-2.17 1.62l-1.386 5.002-.076-.078a3.267 3.267 0 010-4.559l10.15-10.325a3.12 3.12 0 012.24-.944 3.12 3.12 0 012.24.944l3.93 3.998-1.134.341a.553.553 0 00-.39.531c0 .246.159.462.39.531l3.045.917.663 2.835c.059.25.278.425.53.425a.546.546 0 00.53-.425l.275-1.178 2.31 2.35a3.268 3.268 0 010 4.559z" fill="#57C460" stroke="#57C460" stroke-width=".2"/></svg>