<svg width="35" height="34" fill="none" xmlns="http://www.w3.org/2000/svg"><path d="M2.495 33h20.986a1.49 1.49 0 001.496-1.482v-12.78l6.393-6.339.361.358a.585.585 0 010 .87l-3.145 3.117a.491.491 0 000 .716.502.502 0 00.722 0l3.145-3.118c.619-.614.619-1.636 0-2.3l-.36-.358 1.443-1.432c.31-.306.464-.715.464-1.124 0-.41-.155-.818-.464-1.125L32.453 6.88c-.619-.614-1.701-.614-2.32 0l-5.105 5.06V2.482A1.49 1.49 0 0023.533 1H2.495A1.49 1.49 0 001 2.482v28.984C1 32.336 1.67 33 2.495 33zm17.377-10.633l-1.96-1.942L28.69 9.74l1.96 1.943c-3.713 3.63-7.065 7.003-10.777 10.683zm-.928.512l-2.63.97.98-2.606 1.65 1.636zm11.91-15.285c.259-.255.671-.255.877 0l1.083 1.074a.646.646 0 01.206.46.622.622 0 01-.206.46l-1.444 1.431-2.01-1.993 1.495-1.432zM2.032 2.482c0-.255.206-.51.516-.51h20.986c.258 0 .515.204.515.51v10.429l-7.218 7.156c-.052.051-.052.102-.103.153l-1.702 4.346c-.155.408.258.817.67.664l4.383-1.687a.703.703 0 00.206-.153l3.713-3.68v11.808a.514.514 0 01-.516.51H2.495a.515.515 0 01-.515-.51V2.482h.051z" fill="#57C460" stroke="#57C460" stroke-width=".3"/><path d="M5.074 17.511h12.065a.514.514 0 00.516-.511c0-.307-.206-.511-.516-.511H5.074a.515.515 0 00-.516.511c0 .307.258.511.516.511zm0-7.719h15.83a.515.515 0 00.515-.51.514.514 0 00-.516-.512H5.073a.515.515 0 00-.515.511c0 .256.258.511.516.511zm0 11.553h8.972a.515.515 0 00.515-.511c0-.307-.206-.511-.515-.511H5.074a.515.515 0 00-.516.51c0 .308.258.512.516.512zm0-7.719h15.83a.515.515 0 00.515-.51c0-.307-.206-.512-.516-.512H5.073a.515.515 0 00-.515.511c0 .307.258.511.516.511zm0 11.604h6.972a.515.515 0 00.515-.511c0-.307-.206-.512-.515-.512H5.074a.515.515 0 00-.516.512c0 .306.258.51.516.51zm0-19.322h7.94a.515.515 0 00.516-.512.514.514 0 00-.516-.51h-7.94a.515.515 0 00-.516.51c0 .307.258.512.516.512z" fill="#57C460" stroke="#57C460" stroke-width=".3"/></svg>