<svg width="27" height="32" fill="none" xmlns="http://www.w3.org/2000/svg"><path d="M8 22.933H6.934a.533.533 0 000 1.067H8a.533.533 0 000-1.067zm14.933 0h-12.8a.533.533 0 000 1.067h12.8a.533.533 0 100-1.067zM8 19.733H6.934a.533.533 0 000 1.067H8a.533.533 0 000-1.067zm14.933 0h-12.8a.533.533 0 000 1.067h12.8a.533.533 0 100-1.067zM8 16.533H6.934a.533.533 0 000 1.067H8a.533.533 0 000-1.067zm14.933 0h-12.8a.533.533 0 000 1.067h12.8a.533.533 0 100-1.067zM8 13.334H6.934a.533.533 0 000 1.066H8a.533.533 0 000-1.066zm14.933 0h-12.8a.533.533 0 000 1.066h12.8a.533.533 0 100-1.066zM8 10.133H6.934a.533.533 0 000 1.067H8a.533.533 0 000-1.067zm14.933 0h-12.8a.533.533 0 000 1.067h12.8a.533.533 0 100-1.067z" fill="#57C460"/><path d="M26.66 7.966a.501.501 0 00-.027-.137c-.006-.017-.01-.033-.018-.05a.532.532 0 00-.107-.156L19.042.156a.533.533 0 00-.157-.106c-.016-.008-.033-.012-.05-.018a.53.53 0 00-.137-.028c-.01.002-.02-.004-.031-.004H3.733A.533.533 0 003.2.533v1.6H.533A.533.533 0 000 2.667v28.8c0 .294.239.533.533.533h22.4a.533.533 0 00.534-.533V28.8h2.666a.533.533 0 00.534-.533V8c0-.012-.006-.022-.007-.034zM19.2 1.821l5.646 5.646H19.2V1.82zm3.2 29.112H1.067V3.2H3.2v25.067c0 .294.239.533.533.533H22.4v2.133zm3.2-3.2H4.267V1.067h13.866V8c0 .295.24.533.534.533H25.6v19.2z" fill="#57C460"/><path d="M10.134 4.8h-3.2a.533.533 0 00-.534.533v3.2c0 .295.24.533.534.533h3.2a.533.533 0 00.533-.533v-3.2a.533.533 0 00-.533-.533zM9.6 8H7.467V5.866H9.6V8z" fill="#57C460"/></svg>