<svg width="32" height="32" fill="none" xmlns="http://www.w3.org/2000/svg"><path d="M22.725 19.655a.695.695 0 00-.982.055 7.706 7.706 0 01-5.742 2.55 7.707 7.707 0 01-5.743-2.55.696.696 0 10-1.037.928 9.1 9.1 0 006.78 3.014 9.1 9.1 0 006.779-3.014.696.696 0 00-.055-.983z" fill="#57C460"/><path d="M16 0C7.178 0 0 7.178 0 16s7.178 16 16 16 16-7.178 16-16S24.822 0 16 0zm0 30.609C7.944 30.609 1.391 24.056 1.391 16 1.391 7.944 7.944 1.391 16 1.391c8.056 0 14.609 6.553 14.609 14.609 0 8.056-6.553 14.609-14.609 14.609z" fill="#57C460"/><path d="M21.565 11.13a3.482 3.482 0 00-3.478 3.479.696.696 0 001.391 0 2.09 2.09 0 012.087-2.087 2.09 2.09 0 012.087 2.087.696.696 0 001.391 0 3.482 3.482 0 00-3.478-3.479zm-9.044 3.479a.696.696 0 001.392 0 3.482 3.482 0 00-3.479-3.479 3.482 3.482 0 00-3.478 3.479.696.696 0 001.391 0 2.09 2.09 0 012.087-2.087 2.09 2.09 0 012.087 2.087z" fill="#57C460"/></svg>