<?xml version="1.0" encoding="utf-8"?><svg viewBox="0 0 29 29" xmlns="http://www.w3.org/2000/svg" xmlns:xlink="http://www.w3.org/1999/xlink"><style>:root>svg{display:none}:root>svg:target{display:block}</style><svg fill="none" viewBox="0 0 18 18" id="clock" xmlns="http://www.w3.org/2000/svg"><path d="M9 1C4.588 1 1 4.588 1 9s3.588 8 8 8 8-3.588 8-8-3.588-8-8-8zm0 1.116A6.875 6.875 0 0115.884 9 6.875 6.875 0 019 15.884 6.875 6.875 0 012.116 9 6.875 6.875 0 019 2.116zm0 .93a.558.558 0 00-.558.559V9c0 .154.062.294.163.395l3.552 3.553a.56.56 0 00.79-.791l-3.389-3.39V3.605A.558.558 0 009 3.047z" fill="#57C460" stroke="#F2F4F6" stroke-width=".1"/></svg><svg fill="none" viewBox="0 0 13 6" id="down-arrow" xmlns="http://www.w3.org/2000/svg"><path d="M6.522 6a.808.808 0 01-.304-.086L.154.754C-.02.582-.063.324.11.152.284-.02.544-.062.717.11l5.805 4.902L12.283.11c.174-.171.433-.129.607.043.173.172.13.473-.044.602l-6.064 5.16a.467.467 0 01-.26.086z" fill="#1F1F1F"/></svg><svg fill="none" viewBox="0 0 29 17" id="down-arrow-big" xmlns="http://www.w3.org/2000/svg"><path d="M12.842 16.308l.002.002a2.33 2.33 0 003.312 0l.002-.002L28.319 4.013c.91-.92.908-2.41-.008-3.328a2.329 2.329 0 00-3.307.008l-8.165 8.255c-.739.83-2.708 1.991-4.678 0L3.996.693A2.329 2.329 0 00.69.685a2.363 2.363 0 00-.008 3.328l12.161 12.295z" fill="#57C460"/></svg><svg fill="none" viewBox="0 0 16 11" id="email" xmlns="http://www.w3.org/2000/svg"><path d="M15.788.907a1.696 1.696 0 00-.474-.554A1.698 1.698 0 0014.286 0H1.714C1.322 0 .98.134.686.353.49.503.326.689.212.907A1.663 1.663 0 000 1.763v7.474c0 .336.098.638.245.906.13.219.294.387.49.538.277.202.62.319.98.319h12.57c.36 0 .703-.117.98-.32a1.7 1.7 0 00.49-.537c.163-.268.245-.57.245-.906V1.763a1.95 1.95 0 00-.212-.856zM1.714.739h12.572a.95.95 0 01.44.1L8.425 5.879a.617.617 0 01-.408.151.616.616 0 01-.408-.151L1.306.84a.739.739 0 01.408-.101zM.702 9.253V1.78c0-.134.033-.285.082-.403l4.75 3.796-4.75 4.483a1.183 1.183 0 01-.082-.403zm13.584 1.025H1.714a.95.95 0 01-.44-.1L6.09 5.608l1.045.84c.245.185.538.302.849.302.31 0 .604-.1.849-.302l1.045-.84 4.816 4.568a.739.739 0 01-.408.1zm-3.82-5.122l4.75-3.796c.05.118.082.252.082.403v7.474c0 .134-.033.285-.082.403l-4.75-4.484z" fill="#57C460"/></svg><svg fill="none" viewBox="0 0 24 24" id="exit" xmlns="http://www.w3.org/2000/svg"><rect x="1.217" y=".156" width="32" height="1.5" rx=".75" transform="rotate(45 1.217 .156)" fill="#1F1F1F"/><rect x=".156" y="22.783" width="32" height="1.5" rx=".75" transform="rotate(-45 .156 22.783)" fill="#1F1F1F"/></svg><svg fill="none" viewBox="0 0 17 29" id="left-arrow" xmlns="http://www.w3.org/2000/svg"><path d="M.756 12.842l-.002.002a2.337 2.337 0 000 3.312l.002.002 12.247 12.161c.917.91 2.401.908 3.314-.008a2.335 2.335 0 00-.008-3.307l-8.222-8.165c-.826-.739-1.983-2.708 0-4.678l8.223-8.165A2.335 2.335 0 0016.318.69a2.347 2.347 0 00-3.315-.008L.756 12.842z" fill="#57C460"/></svg><svg fill="none" viewBox="0 0 14 18" id="location" xmlns="http://www.w3.org/2000/svg"><path d="M7 1C3.692 1 1 3.632 1 6.867c0 4.98 5.405 9.794 5.635 9.996a.551.551 0 00.73 0C7.595 16.661 13 11.847 13 6.867 13 3.632 10.308 1 7 1zm0 14.728c-1.195-1.158-4.91-5.063-4.91-8.861 0-2.647 2.203-4.8 4.91-4.8 2.707 0 4.91 2.153 4.91 4.8 0 3.798-3.715 7.703-4.91 8.86z" fill="#57C460" stroke="#F2F4F6" stroke-width=".2"/><path d="M7 3.667c-1.805 0-3.273 1.435-3.273 3.2 0 1.764 1.468 3.2 3.273 3.2 1.805 0 3.273-1.436 3.273-3.2 0-1.765-1.468-3.2-3.273-3.2zM7 9c-1.203 0-2.182-.957-2.182-2.133 0-1.177.979-2.134 2.182-2.134 1.203 0 2.182.957 2.182 2.134C9.182 8.043 8.203 9 7 9z" fill="#57C460" stroke="#F2F4F6" stroke-width=".2"/></svg><svg fill="none" viewBox="0 0 22 16" id="mark" xmlns="http://www.w3.org/2000/svg"><path d="M21.678.32a1.108 1.108 0 00-1.556 0L6.944 13.37 1.878 8.354a1.108 1.108 0 00-1.556 0 1.082 1.082 0 000 1.54l5.844 5.787c.43.426 1.126.425 1.555 0L21.678 1.86c.43-.426.43-1.115 0-1.54z" fill="#57C460"/></svg><svg fill="none" viewBox="0 0 11 3" id="minus" xmlns="http://www.w3.org/2000/svg"><path d="M6.912 2.609H11V0H0v2.609h6.912z" fill="#57C460"/></svg><svg fill="none" viewBox="0 0 18 24" id="office" xmlns="http://www.w3.org/2000/svg"><path d="M9 0C4.037 0 0 3.948 0 8.8c0 7.47 8.108 14.691 8.453 14.994a.827.827 0 001.094 0C9.892 23.491 18 16.27 18 8.8 18 3.948 13.963 0 9 0z" fill="#57C460"/><circle cx="9" cy="9" r="7" fill="#fff"/><path d="M9.343 5.568l-3.663-.56a.588.588 0 00-.473.13.602.602 0 00-.207.45v7.076c0 .185.15.336.333.336h1.084v-1.763c0-.326.26-.588.583-.588h.833c.324 0 .584.262.584.588V13h1.416V6.15a.587.587 0 00-.49-.582zm-2.51 4.326h-.5a.251.251 0 01-.25-.252c0-.14.112-.252.25-.252h.5c.138 0 .25.113.25.252a.251.251 0 01-.25.252zm0-1.008h-.5a.251.251 0 01-.25-.252c0-.139.112-.252.25-.252h.5c.138 0 .25.113.25.252a.251.251 0 01-.25.252zm0-1.007h-.5a.251.251 0 01-.25-.252c0-.14.112-.252.25-.252h.5c.138 0 .25.113.25.252a.251.251 0 01-.25.252zm0-1.008h-.5a.251.251 0 01-.25-.252c0-.139.112-.252.25-.252h.5c.138 0 .25.113.25.252a.251.251 0 01-.25.252zM8.5 9.894H8a.251.251 0 01-.25-.252c0-.14.112-.252.25-.252h.5c.138 0 .25.113.25.252a.251.251 0 01-.25.252zm0-1.008H8a.251.251 0 01-.25-.252c0-.139.112-.252.25-.252h.5c.138 0 .25.113.25.252a.251.251 0 01-.25.252zm0-1.007H8a.251.251 0 01-.25-.252c0-.14.112-.252.25-.252h.5c.138 0 .25.113.25.252a.251.251 0 01-.25.252zm0-1.008H8a.251.251 0 01-.25-.252c0-.139.112-.252.25-.252h.5c.138 0 .25.113.25.252a.251.251 0 01-.25.252zM12.54 8.581l-2.374-.5V13h2.25a.586.586 0 00.583-.588V9.155a.584.584 0 00-.46-.574zm-.79 3.412h-.5a.251.251 0 01-.25-.252c0-.14.111-.252.25-.252h.5c.137 0 .25.113.25.252a.251.251 0 01-.25.252zm0-1.008h-.5a.251.251 0 01-.25-.252c0-.139.111-.252.25-.252h.5c.137 0 .25.113.25.252a.251.251 0 01-.25.252zm0-1.007h-.5a.251.251 0 01-.25-.252c0-.14.111-.252.25-.252h.5c.137 0 .25.113.25.252a.251.251 0 01-.25.252z" fill="#57C460"/></svg><svg fill="none" viewBox="0 0 18 24" id="partner" xmlns="http://www.w3.org/2000/svg"><path d="M9 0C4.037 0 0 3.948 0 8.8c0 7.47 8.108 14.691 8.453 14.994a.827.827 0 001.094 0C9.892 23.491 18 16.27 18 8.8 18 3.948 13.963 0 9 0z" fill="#D62525"/><circle cx="9" cy="9" r="7" fill="#fff"/><path d="M14 6.368v2.931s-.648.124-.781.14c-.133.016-.551.147-.854-.135-.468-.434-2.128-2.033-2.128-2.033S9.95 7 9.49 7.235c-.422.215-1.047.53-1.309.653-.493.255-.903-.149-.903-.457 0-.238.154-.4.374-.52a68.262 68.262 0 012.374-1.3c.318-.164.547-.178.983.178.538.438 1.016.837 1.016.837s.156.126.405.075C13.04 6.576 14 6.368 14 6.368zm-6.608 4.966a.523.523 0 00-.101-.577c-.138-.137-.34-.173-.534-.13a.516.516 0 00-.115-.522.571.571 0 00-.533-.13.515.515 0 00-.116-.521c-.218-.217-.595-.208-.843.021-.247.23-.405.645-.185.889.22.243.472.095.665.053-.054.184-.214.357-.016.598.197.243.472.096.664.054-.053.184-.207.373-.017.598.192.225.506.105.713.042-.08.2-.251.414-.03.655.219.242.727.13.975-.099.247-.229.271-.592.053-.81-.15-.149-.374-.183-.58-.12zm4.526-1.525l-1.915-1.855s-.29-.28-.672-.117c-.268.113-.614.269-.874.387-.285.145-.491.19-.588.19-.552-.004-1-.434-1-.968 0-.347.19-.648.474-.82.398-.267 1.315-.739 1.315-.739s-.28-.343-.891-.343c-.612 0-1.89.811-1.89.811s-.363.225-.88.022L4 6.041v3.354s.285.08.54.181c.058-.16.151-.306.28-.428.425-.391 1.128-.395 1.514-.01a.917.917 0 01.238.41.972.972 0 01.41.242.915.915 0 01.24.41c.154.046.295.129.409.242a.94.94 0 01.253.45.956.956 0 01.693 1.094c.003.004.143.155.23.24a.45.45 0 00.622 0 .418.418 0 000-.602c-.006-.006-.617-.624-.567-.672.048-.048.826.736.84.75a.45.45 0 00.622 0 .417.417 0 000-.601 2.853 2.853 0 01-.056-.053s-.772-.666-.713-.722c.06-.058 1.018.808 1.02.808.172.15.437.15.603-.011a.413.413 0 00.021-.57c-.003-.009-.73-.744-.673-.8.057-.056.777.662.779.663.17.165.45.165.62 0a.418.418 0 000-.602l-.007-.005z" fill="#D62525"/></svg><svg fill="none" viewBox="0 0 12 16" id="phone" xmlns="http://www.w3.org/2000/svg"><path fill-rule="evenodd" clip-rule="evenodd" d="M5.513 4.989l-.036.02c-.087.052-.167.098-.24.14-.198.112-.35.2-.492.307a.88.88 0 00-.163.152c-.025.032-.027.046-.027.046l-.002.005c.001.017.005.069.025.165.036.17.106.4.215.681.215.56.55 1.24.933 1.913.383.672.8 1.307 1.175 1.78.187.237.35.416.481.535.058.052.098.083.12.099a.963.963 0 00.276-.082c.177-.074.347-.168.56-.286.073-.04.152-.085.238-.131.314-.177.736-.284 1.18-.083.348.158.566.454.68.614l.023.033 1.284 2.216.013.025c.043.088.104.21.15.34.047.128.103.322.093.55-.025.572-.41.91-.736 1.092-.731.414-1.59.814-2.42.874h-.02c-1.42.072-2.795-.6-3.964-1.558-1.182-.967-2.247-2.299-3.073-3.74C.96 9.257.348 7.663.109 6.149c-.235-1.496-.122-3.03.657-4.23C1.196 1.243 2.008.67 2.726.26a1.4 1.4 0 01.566-.242c.276-.047.539.006.76.13.35.193.546.54.625.678l.007.012 1.249 2.2c.118.209.282.558.225.977-.062.46-.35.763-.612.951l-.033.024zm-2.31-3.98c-.714.404-1.383.898-1.695 1.392-2.454 3.771 2.81 12.93 7.272 12.706.624-.045 1.338-.36 2.052-.763.401-.225.312-.45.134-.808l-1.25-2.155c-.222-.315-.4-.45-.713-.27l-.206.113c-.52.289-1.061.59-1.534.47-1.07-.269-3.881-5.207-3.57-6.24.12-.515.654-.82 1.147-1.101.065-.038.13-.074.192-.111.313-.225.313-.45.134-.764l-1.249-2.2C3.739.964 3.56.74 3.203 1.01z" fill="#57C460"/></svg><svg fill="none" viewBox="0 0 23 18" id="pickup-point" xmlns="http://www.w3.org/2000/svg"><path d="M19.55 6.689c-.194 0-.35.16-.35.355v9.245H3.8V7.044a.353.353 0 00-.35-.355c-.193 0-.35.16-.35.355v9.6c0 .197.157.356.35.356h16.1c.194 0 .35-.16.35-.356v-9.6a.353.353 0 00-.35-.355zM21.898 3.237l-2.1-2.133c-.006-.005-.013-.007-.018-.012a.345.345 0 00-.077-.052c-.01-.005-.02-.012-.032-.016A.341.341 0 0019.55 1H3.45a.341.341 0 00-.121.024c-.011.004-.021.011-.032.016a.342.342 0 00-.077.052c-.005.005-.012.007-.017.012l-2.1 2.133a.36.36 0 000 .503.346.346 0 00.494 0L2.65 2.672 1.72 5.51a.36.36 0 00.047.32.348.348 0 00.284.148h18.9a.348.348 0 00.284-.148.36.36 0 00.048-.32l-.931-2.838 1.052 1.068a.346.346 0 00.495 0 .36.36 0 000-.503zm-1.434 2.03H2.536L3.702 1.71h15.596l1.166 3.556z" fill="#57C460" stroke="#57C460" stroke-width=".3"/><path d="M18.15 8.467c0-.785-.628-1.423-1.4-1.423-.772 0-1.4.638-1.4 1.423 0 .784.628 1.422 1.4 1.422.772 0 1.4-.638 1.4-1.422zm-2.1 0c0-.393.314-.711.7-.711.386 0 .7.318.7.71a.706.706 0 01-.7.712.706.706 0 01-.7-.711z" fill="#57C460" stroke="#57C460" stroke-width=".3"/></svg><svg fill="none" viewBox="0 0 11 12" id="plus" xmlns="http://www.w3.org/2000/svg"><path d="M11 7.205H6.912V12H4.088V7.205H0V4.596h4.088V0h2.824v4.596H11v2.609z" fill="#57C460"/></svg><svg fill="none" viewBox="0 0 18 29" id="question" xmlns="http://www.w3.org/2000/svg"><path d="M6.64 19.44c-.827-1.013-1.24-2.24-1.24-3.68 0-.827.173-1.573.52-2.24.373-.693.813-1.253 1.32-1.68a19.168 19.168 0 011.52-1.16 8.979 8.979 0 001.28-1.04c.373-.373.56-.733.56-1.08C10.6 7.52 9.813 7 8.24 7c-1.6 0-3 .693-4.2 2.08L.2 4.68a10.368 10.368 0 013.92-2.8C5.693 1.24 7.32.92 9 .92c2.613 0 4.693.587 6.24 1.76 1.547 1.173 2.32 2.72 2.32 4.64 0 1.067-.213 2.013-.64 2.84-.427.827-.947 1.507-1.56 2.04-.587.507-1.187.973-1.8 1.4A8.788 8.788 0 0012 14.96c-.427.48-.64.987-.64 1.52 0 .667.2 1.2.6 1.6l-5.32 1.36zm5.08 7.92c-.747.747-1.627 1.12-2.64 1.12-1.013 0-1.893-.373-2.64-1.12-.747-.747-1.12-1.627-1.12-2.64 0-1.013.373-1.893 1.12-2.64.747-.747 1.627-1.12 2.64-1.12 1.013 0 1.893.373 2.64 1.12.747.747 1.12 1.627 1.12 2.64 0 1.013-.373 1.893-1.12 2.64z" fill="#57C460"/></svg><svg fill="none" viewBox="0 0 22 16" id="quote" xmlns="http://www.w3.org/2000/svg"><path d="M22 5.914C22 9.948 20.037 13.31 16.111 16l-3.439-2.705c.785-.336 1.633-.947 2.544-1.834.88-.886 1.46-1.742 1.743-2.567-.314.122-.722.183-1.224.183-1.163 0-2.136-.397-2.921-1.192-.785-.794-1.178-1.818-1.178-3.071 0-1.314.487-2.445 1.46-3.393C14.07.474 15.216 0 16.536 0c1.507 0 2.794.535 3.862 1.605C21.466 2.675 22 4.11 22 5.914zm-11.636 0c0 4.034-1.963 7.396-5.889 10.086l-3.439-2.705c.786-.336 1.634-.947 2.544-1.834.88-.886 1.46-1.742 1.743-2.567-.314.122-.722.183-1.225.183-1.162 0-2.135-.397-2.92-1.192C.393 7.091 0 6.067 0 4.814 0 3.5.487 2.369 1.46 1.42 2.434.474 3.58 0 4.9 0c1.507 0 2.794.535 3.862 1.605 1.068 1.07 1.602 2.506 1.602 4.309z" fill="#57C460"/></svg><svg fill="none" viewBox="0 0 6 12" id="right-arrow" xmlns="http://www.w3.org/2000/svg"><path d="M5.873 5.67L.735.137a.409.409 0 00-.61 0 .492.492 0 00.002.658L4.959 6 .127 11.206a.492.492 0 00-.001.657A.414.414 0 00.43 12c.11 0 .22-.045.304-.136L5.873 6.33A.484.484 0 006 6a.485.485 0 00-.127-.33z" fill="#57C460"/></svg><svg fill="none" viewBox="0 0 25 12" id="right-arrow2" xmlns="http://www.w3.org/2000/svg"><path d="M24.714 5.315h-.001L19.61.281a.983.983 0 00-1.381.003.962.962 0 00.003 1.369l3.426 3.378H.977A.972.972 0 000 6c0 .534.437.968.977.968h20.681l-3.426 3.378a.962.962 0 00-.003 1.369c.38.379.999.38 1.381.003l5.103-5.032v-.001a.962.962 0 000-1.37z" fill="#57C460"/></svg><svg fill="none" viewBox="0 0 18 24" id="taxi-firm" xmlns="http://www.w3.org/2000/svg"><path d="M9 0C4.037 0 0 3.948 0 8.8c0 7.47 8.108 14.691 8.453 14.994a.827.827 0 001.094 0C9.892 23.491 18 16.27 18 8.8 18 3.948 13.963 0 9 0z" fill="#EADA4D"/><circle cx="9" cy="9" r="7" fill="#fff"/><path d="M6.224 11H7.78c.122 0 .222-.1.222-.222V9h-2v1.778c0 .122.1.222.222.222zM10.222 11h1.556c.122 0 .222-.1.222-.222V9h-2v1.778c0 .122.1.222.222.222zM6 7.222C6 7.1 5.9 7 5.778 7H4.222C4.1 7 4 7.1 4 7.222v1.556C4 8.9 4.1 9 4.222 9H6V7.222zM10.002 7.222c0-.122-.1-.222-.222-.222H8.224c-.123 0-.222.1-.222.222V9h2V7.222zM14 8.778V7.222C14 7.1 13.9 7 13.778 7h-1.556C12.1 7 12 7.1 12 7.222V9h1.778C13.9 9 14 8.9 14 8.778z" fill="#EADA4D"/></svg><svg fill="none" viewBox="0 0 17 8" id="up-arrow" xmlns="http://www.w3.org/2000/svg"><path d="M8.528 0a1.04 1.04 0 00-.396.115L.2 6.995c-.227.228-.283.572-.057.802.227.229.567.286.793.057l7.591-6.535 7.535 6.535c.226.23.566.172.793-.057.226-.23.17-.63-.057-.803L8.87.114C8.811.058 8.641 0 8.528 0z" fill="#1F1F1F"/></svg><svg fill="none" viewBox="0 0 18 24" id="wash" xmlns="http://www.w3.org/2000/svg"><path d="M9 0C4.037 0 0 3.948 0 8.8c0 7.47 8.108 14.691 8.453 14.994a.827.827 0 001.094 0C9.892 23.491 18 16.27 18 8.8 18 3.948 13.963 0 9 0z" fill="#2596D6"/><circle cx="9" cy="9" r="7" fill="#fff"/><path d="M9.41 4.345c-.268-.468-.552-.452-.82 0-1.23 1.87-3.09 4.674-3.09 6.077 0 .983.394 1.885 1.025 2.53A3.466 3.466 0 009 14c.962 0 1.845-.403 2.475-1.048a3.624 3.624 0 001.025-2.53c0-1.419-1.86-4.208-3.09-6.077z" fill="#2596D6"/></svg><svg fill="none" viewBox="0 0 25 22" id="wifi" xmlns="http://www.w3.org/2000/svg"><path d="M6.986 12.862l2.5 3.067.554-.453a4.45 4.45 0 012.807-1 4.45 4.45 0 012.807 1l.554.453 2.5-3.067a9.556 9.556 0 00-5.861-2.013c-2.12 0-4.194.713-5.861 2.013z" fill="#57C460"/><path d="M3.823 8.983l2.176 2.669.083.101a10.993 10.993 0 016.765-2.334c2.45 0 4.843.827 6.766 2.334l.082-.101 2.177-2.67a14.589 14.589 0 00-9.025-3.133 14.59 14.59 0 00-9.024 3.134z" fill="#57C460"/><path d="M24.447 4.694a18.284 18.284 0 00-11.6-4.13 18.29 18.29 0 00-11.6 4.13l-.553.452 2.224 2.728a15.924 15.924 0 019.93-3.455 15.94 15.94 0 019.928 3.455L25 5.146l-.553-.452zM12.847 16.217a2.594 2.594 0 00-2.591 2.591 2.594 2.594 0 002.591 2.592 2.594 2.594 0 002.592-2.592 2.594 2.594 0 00-2.592-2.591z" fill="#57C460"/></svg></svg>