<?xml version="1.0" encoding="utf-8"?><svg viewBox="0 0 23 18" xmlns="http://www.w3.org/2000/svg" xmlns:xlink="http://www.w3.org/1999/xlink"><style>:root>svg{display:none}:root>svg:target{display:block}</style><svg fill="none" viewBox="0 0 18 18" id="clock" xmlns="http://www.w3.org/2000/svg"><path d="M9 1C4.588 1 1 4.588 1 9s3.588 8 8 8 8-3.588 8-8-3.588-8-8-8zm0 1.116A6.875 6.875 0 0115.884 9 6.875 6.875 0 019 15.884 6.875 6.875 0 012.116 9 6.875 6.875 0 019 2.116zm0 .93a.558.558 0 00-.558.559V9c0 .154.062.294.163.395l3.552 3.553a.56.56 0 00.79-.791l-3.389-3.39V3.605A.558.558 0 009 3.047z" fill="#57C460" stroke="#F2F4F6" stroke-width=".1"/></svg><svg fill="none" viewBox="0 0 13 6" id="down-arrow" xmlns="http://www.w3.org/2000/svg"><path d="M6.522 6a.808.808 0 01-.304-.086L.154.754C-.02.582-.063.324.11.152.284-.02.544-.062.717.11l5.805 4.902L12.283.11c.174-.171.433-.129.607.043.173.172.13.473-.044.602l-6.064 5.16a.467.467 0 01-.26.086z" fill="#1F1F1F"/></svg><svg fill="none" viewBox="0 0 14 18" id="location" xmlns="http://www.w3.org/2000/svg"><path d="M7 1C3.692 1 1 3.632 1 6.867c0 4.98 5.405 9.794 5.635 9.996a.551.551 0 00.73 0C7.595 16.661 13 11.847 13 6.867 13 3.632 10.308 1 7 1zm0 14.728c-1.195-1.158-4.91-5.063-4.91-8.861 0-2.647 2.203-4.8 4.91-4.8 2.707 0 4.91 2.153 4.91 4.8 0 3.798-3.715 7.703-4.91 8.86z" fill="#57C460" stroke="#F2F4F6" stroke-width=".2"/><path d="M7 3.667c-1.805 0-3.273 1.435-3.273 3.2 0 1.764 1.468 3.2 3.273 3.2 1.805 0 3.273-1.436 3.273-3.2 0-1.765-1.468-3.2-3.273-3.2zM7 9c-1.203 0-2.182-.957-2.182-2.133 0-1.177.979-2.134 2.182-2.134 1.203 0 2.182.957 2.182 2.134C9.182 8.043 8.203 9 7 9z" fill="#57C460" stroke="#F2F4F6" stroke-width=".2"/></svg><svg fill="none" viewBox="0 0 22 16" id="mark" xmlns="http://www.w3.org/2000/svg"><path d="M21.678.32a1.108 1.108 0 00-1.556 0L6.944 13.37 1.878 8.354a1.108 1.108 0 00-1.556 0 1.082 1.082 0 000 1.54l5.844 5.787c.43.426 1.126.425 1.555 0L21.678 1.86c.43-.426.43-1.115 0-1.54z" fill="#57C460"/></svg><svg fill="none" viewBox="0 0 12 16" id="phone" xmlns="http://www.w3.org/2000/svg"><path fill-rule="evenodd" clip-rule="evenodd" d="M5.513 4.989l-.036.02c-.087.052-.167.098-.24.14-.198.112-.35.2-.492.307a.88.88 0 00-.163.152c-.025.032-.027.046-.027.046l-.002.005c.001.017.005.069.025.165.036.17.106.4.215.681.215.56.55 1.24.933 1.913.383.672.8 1.307 1.175 1.78.187.237.35.416.481.535.058.052.098.083.12.099a.963.963 0 00.276-.082c.177-.074.347-.168.56-.286.073-.04.152-.085.238-.131.314-.177.736-.284 1.18-.083.348.158.566.454.68.614l.023.033 1.284 2.216.013.025c.043.088.104.21.15.34.047.128.103.322.093.55-.025.572-.41.91-.736 1.092-.731.414-1.59.814-2.42.874h-.02c-1.42.072-2.795-.6-3.964-1.558-1.182-.967-2.247-2.299-3.073-3.74C.96 9.257.348 7.663.109 6.149c-.235-1.496-.122-3.03.657-4.23C1.196 1.243 2.008.67 2.726.26a1.4 1.4 0 01.566-.242c.276-.047.539.006.76.13.35.193.546.54.625.678l.007.012 1.249 2.2c.118.209.282.558.225.977-.062.46-.35.763-.612.951l-.033.024zm-2.31-3.98c-.714.404-1.383.898-1.695 1.392-2.454 3.771 2.81 12.93 7.272 12.706.624-.045 1.338-.36 2.052-.763.401-.225.312-.45.134-.808l-1.25-2.155c-.222-.315-.4-.45-.713-.27l-.206.113c-.52.289-1.061.59-1.534.47-1.07-.269-3.881-5.207-3.57-6.24.12-.515.654-.82 1.147-1.101.065-.038.13-.074.192-.111.313-.225.313-.45.134-.764l-1.249-2.2C3.739.964 3.56.74 3.203 1.01z" fill="#57C460"/></svg><svg fill="none" viewBox="0 0 23 18" id="pickup-point" xmlns="http://www.w3.org/2000/svg"><path d="M19.55 6.689c-.194 0-.35.16-.35.355v9.245H3.8V7.044a.353.353 0 00-.35-.355c-.193 0-.35.16-.35.355v9.6c0 .197.157.356.35.356h16.1c.194 0 .35-.16.35-.356v-9.6a.353.353 0 00-.35-.355zM21.898 3.237l-2.1-2.133c-.006-.005-.013-.007-.018-.012a.345.345 0 00-.077-.052c-.01-.005-.02-.012-.032-.016A.341.341 0 0019.55 1H3.45a.341.341 0 00-.121.024c-.011.004-.021.011-.032.016a.342.342 0 00-.077.052c-.005.005-.012.007-.017.012l-2.1 2.133a.36.36 0 000 .503.346.346 0 00.494 0L2.65 2.672 1.72 5.51a.36.36 0 00.047.32.348.348 0 00.284.148h18.9a.348.348 0 00.284-.148.36.36 0 00.048-.32l-.931-2.838 1.052 1.068a.346.346 0 00.495 0 .36.36 0 000-.503zm-1.434 2.03H2.536L3.702 1.71h15.596l1.166 3.556z" fill="#57C460" stroke="#57C460" stroke-width=".3"/><path d="M18.15 8.467c0-.785-.628-1.423-1.4-1.423-.772 0-1.4.638-1.4 1.423 0 .784.628 1.422 1.4 1.422.772 0 1.4-.638 1.4-1.422zm-2.1 0c0-.393.314-.711.7-.711.386 0 .7.318.7.71a.706.706 0 01-.7.712.706.706 0 01-.7-.711z" fill="#57C460" stroke="#57C460" stroke-width=".3"/></svg><svg fill="none" viewBox="0 0 6 12" id="right-arrow" xmlns="http://www.w3.org/2000/svg"><path d="M5.873 5.67L.735.137a.409.409 0 00-.61 0 .492.492 0 00.002.658L4.959 6 .127 11.206a.492.492 0 00-.001.657A.414.414 0 00.43 12c.11 0 .22-.045.304-.136L5.873 6.33A.484.484 0 006 6a.485.485 0 00-.127-.33z" fill="#57C460"/></svg></svg>