<svg width="32" height="32" fill="none" xmlns="http://www.w3.org/2000/svg"><path d="M2.739 19.165l-.023-.097-.099-.017-1.273-.212h0C.63 18.72.15 18.18.15 17.54v-3.08c0-.64.48-1.18 1.194-1.3l-.024-.147.024.148 1.273-.213.099-.016.023-.097a13.47 13.47 0 011.646-3.974l.052-.085-.057-.081-.75-1.05h0c-.422-.59-.38-1.311.073-1.763h0l2.179-2.179c.452-.452 1.173-.495 1.763-.074h0l1.05.75.081.058.085-.052a13.464 13.464 0 013.974-1.646l.097-.023.017-.099.212-1.273C13.28.63 13.82.15 14.46.15h3.08c.64 0 1.18.48 1.3 1.194l.211 1.273.017.099.097.023c1.408.334 2.74.886 3.974 1.646l.085.052.081-.058 1.05-.75-.087-.122.087.122c.59-.42 1.311-.378 1.763.074l2.179 2.179.106-.106-.106.106c.452.452.495 1.173.074 1.763l.122.087-.122-.087-.75 1.05-.058.081.052.085a13.47 13.47 0 011.647 3.974l.023.097.098.017 1.273.212h0c.714.119 1.194.659 1.194 1.299v3.08c0 .64-.48 1.18-1.195 1.3h0l-1.272.212-.098.016-.023.097a13.467 13.467 0 01-1.647 3.974l-.052.085.058.081.75 1.05h0c.42.59.378 1.311-.074 1.763l.106.107-.106-.107-2.179 2.179.107.106-.107-.106c-.452.452-1.173.495-1.763.074l-.087.122.087-.122-1.05-.75-.08-.058-.086.052a13.466 13.466 0 01-3.974 1.647l-.097.023-.017.098-.212 1.273c-.119.714-.659 1.194-1.299 1.194h-3.08c-.64 0-1.18-.48-1.3-1.194l-.211-1.273-.017-.098-.097-.023a13.468 13.468 0 01-3.974-1.647l-.085-.052-.081.058-1.05.75.087.122-.087-.122c-.59.42-1.311.378-1.763-.074l-.106.106.106-.106-2.179-2.178h0c-.452-.453-.495-1.174-.074-1.764l.75-1.05.058-.08-.052-.086a13.47 13.47 0 01-1.646-3.974zm.67-4.945h0l-1.737.29h-.138v2.958l.125.02 1.75.292.025-.148-.025.148a.692.692 0 01.566.552 12.124 12.124 0 001.873 4.522.692.692 0 01-.01.79l-1.031 1.444-.074.103.09.09 1.896 1.896.09.09.103-.074 1.444-1.031h0a.692.692 0 01.79-.01 12.12 12.12 0 004.522 1.873c.284.055.504.28.552.566l.148-.025-.148.025.291 1.75.021.125h2.935l.021-.126.292-1.75-.148-.024.148.025a.692.692 0 01.552-.566 12.12 12.12 0 004.522-1.873.692.692 0 01.79.01l1.444 1.03.103.075.09-.09 1.896-1.896.09-.09-.074-.103-1.032-1.444a.692.692 0 01-.01-.79l-.124-.084.124.084a12.127 12.127 0 001.874-4.522.692.692 0 01.566-.552l1.75-.291.125-.021v-2.935l-.126-.021-1.75-.292-.024.148.024-.148a.692.692 0 01-.565-.552 12.127 12.127 0 00-1.874-4.522l-.124.084.124-.084a.692.692 0 01.01-.79l1.032-1.444.073-.103-.09-.09-1.895-1.896-.09-.09-.103.074-1.444 1.032h0a.692.692 0 01-.79.01 12.12 12.12 0 00-4.522-1.874.692.692 0 01-.552-.565l-.292-1.75-.02-.126h-2.936l-.02.126-.292 1.75a.692.692 0 01-.552.565A12.119 12.119 0 009.146 5.85a.692.692 0 01-.79-.01h0L6.912 4.807l-.103-.073-.09.09-1.896 1.895-.09.09.074.103 1.031 1.444s0 0 0 0a.69.69 0 01.01.79 12.123 12.123 0 00-1.873 4.522.692.692 0 01-.566.552z" fill="#57C460" stroke="#F2F4F6" stroke-width=".3"/><path d="M16 25.113h-.003c-6.135.107-10.7-6.32-8.617-12.077l.001-.002a.692.692 0 011.31.449C6.922 18.37 10.79 23.819 16 23.729c4.261 0 7.727-3.467 7.728-7.728.09-5.212-5.36-9.076-10.246-7.31a.692.692 0 01-.45-1.31h.003c5.755-2.083 12.185 2.48 12.077 8.616h0V16c0 5.025-4.088 9.113-9.113 9.113z" fill="#57C460" stroke="#F2F4F6" stroke-width=".3"/><path d="M10.556 9.58h0a.691.691 0 00-.977-.047l.977.047zm0 0l.003.002m-.003-.002l.003.002m0 0a.692.692 0 01-.514 1.156l.514-1.156zm-1.026.93a.693.693 0 01.046-.979l-.046.978z" fill="#57C460" stroke="#F2F4F6" stroke-width=".3"/></svg>