<svg width="34" height="34" fill="none" xmlns="http://www.w3.org/2000/svg"><path d="M32.353 17.839h-3.845c-.118-1.47-1.245-2.673-2.715-2.97V8.666a.636.636 0 00-.648-.625h-3.988V6.49c0-3.027-2.563-5.49-5.713-5.49a5.89 5.89 0 00-2.048.365A5.89 5.89 0 0011.348 1c-3.15 0-5.713 2.463-5.713 5.49v1.55H1.647A.636.636 0 001 8.665v21.37C1 31.67 2.379 33 4.074 33h25.745C31.573 33 33 31.622 33 29.928V18.465a.636.636 0 00-.647-.625zm-5.146 0h-4.24c.13-1.007 1.032-1.79 2.12-1.79s1.989.783 2.12 1.79zm-2.709-8.55v5.56c-1.527.254-2.712 1.481-2.833 2.99h-3.824a.637.637 0 00-.647.625v11.465c0 .68.23 1.311.62 1.821H6.283V9.29h3.449v3.205c0 .345.29.625.647.625.357 0 .647-.28.647-.625V9.29h8.838v3.205c0 .345.29.625.647.625.358 0 .647-.28.647-.625V9.29h3.341zM13.396 2.734c1.409.71 2.371 2.128 2.371 3.758V8.04h-4.742V6.49c0-1.629.963-3.047 2.371-3.757zm2.048-.483c2.437 0 4.419 1.902 4.419 4.24v1.55h-2.801V6.49c0-1.693-.803-3.21-2.062-4.219a4.65 4.65 0 01.444-.021zm-4.096 0c.15 0 .298.007.444.021-1.259 1.008-2.061 2.526-2.061 4.22V8.04H6.929V6.49c0-2.338 1.983-4.24 4.42-4.24zM2.294 30.036V9.29h2.694v22.46h-.914c-.981 0-1.78-.769-1.78-1.714zm29.412-.108c0 1.005-.846 1.822-1.887 1.822h-9.445c-1.04 0-1.886-.817-1.886-1.822v-10.84h3.167v2.47c0 .346.29.626.647.626.358 0 .648-.28.648-.625v-2.47h4.274v2.47c0 .345.29.625.647.625.358 0 .647-.28.647-.625v-2.47h3.188v10.84z" fill="#57C460" stroke="#F2F4F6" stroke-width=".1"/></svg>