<svg width="34" height="35" fill="none" xmlns="http://www.w3.org/2000/svg"><path d="M33.828 19.914l-4.063-4.801a.71.71 0 00-.846-.19.719.719 0 00-.413.767l.225 1.498a65.726 65.726 0 01-7.188-4.052c-2.99-1.952-5.714-4.105-8.094-6.398-2.952-2.843-4.63-5.2-5.215-6.081A1.459 1.459 0 006.191.254a1.484 1.484 0 00-.396 2.037c.79 1.192 2.566 3.628 5.585 6.542 2.513 2.427 5.384 4.7 8.533 6.759a68.902 68.902 0 007.963 4.458l-1.214 1.201a.722.722 0 00-.127.863.712.712 0 00.79.36l6.113-1.384a.716.716 0 00.524-.477.723.723 0 00-.134-.699zm-5.703 1.328l.988-.977a.516.516 0 00-.144-.83 68.355 68.355 0 01-8.5-4.703c-3.096-2.023-5.917-4.257-8.384-6.639-2.95-2.847-4.676-5.214-5.443-6.371a.451.451 0 01.121-.62.441.441 0 01.336-.068c.119.023.22.091.288.192.603.91 2.332 3.34 5.358 6.253 2.426 2.337 5.2 4.53 8.244 6.517a67.343 67.343 0 008.173 4.533c.17.08.37.059.52-.054.15-.114.227-.3.199-.488l-.211-1.405 3.06 3.617-4.605 1.043zm4.927-.663zm-.361 10.854h-2.529v-.866a.51.51 0 00-.509-.512.51.51 0 00-.51.512v.866h-2.838v-4.327h2.839v1.062a.51.51 0 00.51.513.51.51 0 00.509-.513v-1.185a.9.9 0 00-.897-.902h-3.083a.9.9 0 00-.896.902v4.45h-2.391V21.252A.9.9 0 0022 20.35h-3.084a.9.9 0 00-.896.902v10.18h-2.39V15.507a.9.9 0 00-.897-.902H11.65a.9.9 0 00-.896.902v15.927H8.363v-16.17a.51.51 0 00-.51-.513.51.51 0 00-.509.512v16.17H4.505V9.915h2.839v2.963a.51.51 0 101.019 0V9.79a.9.9 0 00-.897-.902H4.383a.9.9 0 00-.896.902v21.643H.958a.962.962 0 00-.958.964v1.638c0 .532.43.964.958.964h31.733a.962.962 0 00.958-.964v-1.638a.962.962 0 00-.958-.964zM19.04 21.375h2.838v10.058H19.04V21.375zm-7.267-5.745h2.838v15.803h-2.838V15.63zM32.63 33.974H1.02v-1.516h31.61v1.516z" fill="#57C460"/></svg>