<svg width="31" height="35" fill="none" xmlns="http://www.w3.org/2000/svg"><path d="M21.566 0a.679.679 0 00-.674.684v3.144c0 .378.301.684.674.684a.679.679 0 00.673-.684V.684A.679.679 0 0021.565 0zm-15.5 21.328a.68.68 0 00-.674.684c0 .377.302.683.674.683a.679.679 0 00.673-.683.68.68 0 00-.673-.684z" fill="#57C460"/><path d="M31 19.96c0-1.507-1.21-2.733-2.696-2.733h-5.03c.778-2.024 1.093-4.406 1.033-6.526a7.893 7.893 0 00-.048-.786c-.035-1.477-1.23-2.669-2.694-2.669-1.486 0-2.695 1.227-2.695 2.734v.684c0 4.324-5.474 6.753-9.604 7.794a2.024 2.024 0 00-1.853-1.231H.673A.679.679 0 000 17.91v16.406A.68.68 0 00.674 35h6.739c.822 0 1.531-.5 1.847-1.217l.952.25c2.353.624 3.65.967 6.802.967h7.247c1.486 0 2.695-1.227 2.695-2.734 0-.563-.168-1.085-.456-1.52a2.733 2.733 0 001.804-2.582c0-.56-.164-1.085-.45-1.522a2.733 2.733 0 001.798-2.58c0-.562-.168-1.085-.456-1.52A2.733 2.733 0 0031 19.961zM8.087 32.95a.68.68 0 01-.674.683H1.348v-15.04h6.065a.68.68 0 01.674.684V32.95zm20.217-11.622h-3.37a.679.679 0 00-.673.684c0 .377.302.683.674.683h2.021a1.36 1.36 0 011.348 1.367c0 .756-.603 1.368-1.348 1.368h-3.369a.679.679 0 00-.674.683.68.68 0 00.674.684h2.022c.734 0 1.347.595 1.347 1.367 0 .755-.603 1.367-1.347 1.367h-3.37a.679.679 0 00-.674.684c0 .377.302.683.674.683h2.022a1.36 1.36 0 011.348 1.368 1.36 1.36 0 01-1.348 1.367h-7.247c-2.98 0-4.143-.308-6.461-.922-.34-.09-.712-.19-1.118-.294V19.826c4.877-1.178 10.782-4.055 10.782-9.162V9.98a1.36 1.36 0 011.348-1.367 1.36 1.36 0 011.348 1.365v.002c0 .298.366 3.944-1.1 7.247h-2.27a.679.679 0 00-.673.683c0 .378.301.684.674.684h8.76a1.36 1.36 0 011.348 1.367c0 .755-.603 1.367-1.348 1.367z" fill="#57C460"/><path d="M6.066 24.063a.679.679 0 00-.674.683v5.469c0 .377.301.683.674.683a.679.679 0 00.673-.683v-5.469a.679.679 0 00-.673-.683zm10.108-15.45H13.48a.679.679 0 00-.674.684c0 .377.302.683.674.683h2.695a.679.679 0 00.674-.683.679.679 0 00-.674-.684zm13.478 0h-2.696a.679.679 0 00-.674.684c0 .377.302.683.674.683h2.696a.679.679 0 00.674-.683.679.679 0 00-.674-.684zm-1.892-5.6a.667.667 0 00-.953 0l-1.905 1.933a.69.69 0 000 .967c.263.267.69.267.953 0L27.76 3.98a.69.69 0 000-.967zm-9.53 1.933l-1.906-1.933a.667.667 0 00-.953 0 .69.69 0 000 .967l1.906 1.933c.263.267.69.267.953 0a.69.69 0 000-.967z" fill="#57C460"/></svg>