<svg width="34" height="34" fill="none" xmlns="http://www.w3.org/2000/svg"><path d="M19.808 12.97l11.836 2.35a1.985 1.985 0 011.599 1.962v13.703c0 1.115-.9 2.015-2.016 2.015h-12.09a.665.665 0 00.671-.672v-.672h11.42a.674.674 0 00.671-.671V17.282a.675.675 0 00-.524-.659L19.808 14.34v-1.37z" fill="#57C460" stroke="#57C460" stroke-width=".3"/><path d="M27.197 19.565c.376 0 .672.296.672.672a.665.665 0 01-.672.672H24.51a.665.665 0 01-.672-.672c0-.376.296-.672.672-.672h2.687zm0 4.031c.376 0 .672.295.672.671a.665.665 0 01-.672.672H24.51a.665.665 0 01-.672-.672c0-.376.296-.671.672-.671h2.687zm0 4.031c.376 0 .672.295.672.671a.665.665 0 01-.672.672H24.51a.665.665 0 01-.672-.672c0-.376.296-.671.672-.671h2.687zm-7.389 4.701a.665.665 0 01-.672.672.665.665 0 01-.671-.672V13.52c0-.201.094-.39.241-.524a.706.706 0 01.565-.134l.537.107v19.359z" fill="#57C460" stroke="#57C460" stroke-width=".3"/><path d="M18.465 31.657v.671c0 .377.295.672.672.672h-5.374a.665.665 0 00.671-.672v-.671h4.03zM15.106 7.475c.376 0 .672.295.672.671a.665.665 0 01-.672.672H12.42a.665.665 0 01-.671-.672c0-.376.295-.671.671-.671h2.687zm.672 4.702a.665.665 0 01-.672.671H12.42a.665.665 0 01-.671-.671c0-.377.295-.672.671-.672h2.687c.376 0 .672.295.672.672zm-.672 3.358c.376 0 .672.296.672.672a.665.665 0 01-.672.672H12.42a.665.665 0 01-.671-.672c0-.376.295-.672.671-.672h2.687zm0 4.03c.376 0 .672.296.672.672a.665.665 0 01-.672.672H12.42a.665.665 0 01-.671-.672c0-.376.295-.672.671-.672h2.687zm-6.046.672a.665.665 0 01-.671.672H5.702a.665.665 0 01-.672-.672c0-.376.296-.672.672-.672h2.687c.376 0 .672.296.672.672zM8.389 7.475c.376 0 .672.295.672.671a.665.665 0 01-.672.672H5.702a.665.665 0 01-.672-.672c0-.376.296-.671.672-.671h2.687zm0 4.03c.376 0 .672.295.672.672a.665.665 0 01-.672.671H5.702a.665.665 0 01-.672-.671c0-.377.296-.672.672-.672h2.687zm0 4.03c.376 0 .672.296.672.672a.665.665 0 01-.672.672H5.702a.665.665 0 01-.672-.672c0-.376.296-.672.672-.672h2.687zm4.702 10.075a.674.674 0 00-.672-.67H8.39a.665.665 0 00-.672.67v6.046H6.374v-6.045c0-1.115.9-2.015 2.015-2.015h4.03c1.115 0 2.015.9 2.015 2.015v6.045h-1.343v-6.045z" fill="#57C460" stroke="#57C460" stroke-width=".3"/><path d="M7.717 31.657h6.717v.671a.665.665 0 01-.671.672H7.045a.665.665 0 01-.671-.672v-.671h1.343z" fill="#57C460" stroke="#57C460" stroke-width=".3"/><path d="M3.351 1.026L18.115 3.27c.981.16 1.693.994 1.693 1.988v7.711l-.537-.107a.706.706 0 00-.565.134.714.714 0 00-.241.524V5.258a.68.68 0 00-.564-.672L3.136 2.356c-.04-.013-.08-.013-.12-.013a.634.634 0 00-.43.16.642.642 0 00-.243.511v27.97c0 .377.31.673.672.673h3.359v.671c0 .376.295.672.671.672h-4.03C1.9 33 1 32.1 1 30.985V3.015c0-.592.255-1.156.712-1.532a2.017 2.017 0 011.639-.457z" fill="#57C460" stroke="#57C460" stroke-width=".3"/></svg>