<svg width="15" height="32" fill="none" xmlns="http://www.w3.org/2000/svg"><path d="M13.867 2.133A2.133 2.133 0 0011.733 0h-9.6A2.133 2.133 0 000 2.133v19.2a2.133 2.133 0 002.133 2.134H3.2v3.2a.533.533 0 00.192.41L6.4 29.583v1.884a.533.533 0 00.533.533h6.4a.534.534 0 00.534-.533v-2.031l1.028-2.572a.534.534 0 00.038-.197v-8a.534.534 0 00-.533-.534h-.533v-16zm-12.8 0a1.067 1.067 0 011.066-1.066h9.6A1.067 1.067 0 0112.8 2.133v2.134H1.067V2.133zM3.2 22.4H2.133a1.067 1.067 0 01-1.066-1.067v-1.066H3.2V22.4zm-2.133-3.2V5.333H12.8v12.8H8.533V14.4a1.6 1.6 0 00-3.2 0v4.8H1.067zm12.8 7.364l-1.03 2.572a.532.532 0 00-.037.197v1.6H7.467v-1.6a.533.533 0 00-.192-.41l-3.008-2.506v-6.15h1.066v4.266H6.4V14.4a.533.533 0 011.067 0v6.933h1.066V19.2H9.6v2.133h1.067V19.2h1.066v2.133H12.8V19.2h1.067v7.364z" fill="#57C460"/><path d="M6.4 9.6h1.067v2.133H6.4V9.6zm-3.58.91l.755-.754 1.6 1.6-.754.755-1.6-1.6zm5.867.846l1.6-1.6.754.755-1.6 1.6-.754-.755zM2.133 12.8h2.134v1.066H2.133V12.8zm7.467 0h2.133v1.066H9.6V12.8zM5.333 2.133h3.2V3.2h-3.2V2.133z" fill="#57C460"/></svg>